<?xml version="1.0" standalone="no"?>
<!DOCTYPE svg PUBLIC "-//W3C//DTD SVG 1.1//EN" "http://www.w3.org/Graphics/SVG/1.1/DTD/svg11.dtd" >
<!--
2013-9-30: Created.
-->
<svg>
<metadata>
Created by iconfont
</metadata>
<defs>

<font id="iconfont" horiz-adv-x="1024" >
  <font-face
    font-family="iconfont"
    font-weight="500"
    font-stretch="normal"
    units-per-em="1024"
    ascent="896"
    descent="-128"
  />
    <missing-glyph />
    
    <glyph glyph-name="x" unicode="x" horiz-adv-x="1001"
d="M281 543q-27 -1 -53 -1h-83q-18 0 -36.5 -6t-32.5 -18.5t-23 -32t-9 -45.5v-76h912v41q0 16 -0.5 30t-0.5 18q0 13 -5 29t-17 29.5t-31.5 22.5t-49.5 9h-133v-97h-438v97zM955 310v-52q0 -23 0.5 -52t0.5 -58t-10.5 -47.5t-26 -30t-33 -16t-31.5 -4.5q-14 -1 -29.5 -0.5
t-29.5 0.5h-32l-45 128h-439l-44 -128h-29h-34q-20 0 -45 1q-25 0 -41 9.5t-25.5 23t-13.5 29.5t-4 30v167h911zM163 247q-12 0 -21 -8.5t-9 -21.5t9 -21.5t21 -8.5q13 0 22 8.5t9 21.5t-9 21.5t-22 8.5zM316 123q-8 -26 -14 -48q-5 -19 -10.5 -37t-7.5 -25t-3 -15t1 -14.5
t9.5 -10.5t21.5 -4h37h67h81h80h64h36q23 0 34 12t2 38q-5 13 -9.5 30.5t-9.5 34.5q-5 19 -11 39h-368zM336 498v228q0 11 2.5 23t10 21.5t20.5 15.5t34 6h188q31 0 51.5 -14.5t20.5 -52.5v-227h-327z" />
    

    
    <glyph glyph-name="duigou" unicode="&#58942;" d="M515.1628 807.329C244.2234 807.329 24.5843 587.68 24.5843 316.7516c0-270.9293 219.6391-490.5404 490.5785-490.5404 270.9404 0 490.5805 219.6111 490.5805 490.5404C1005.7423 587.68 786.1033 807.329 515.1628 807.329zM811.4741 388.6699 517.0796 94.2865c-23.8738-23.8538-62.86-23.8538-86.7138 0L280.1336 244.5116c-23.8338 23.8338-23.8338 62.8374 0 86.7102l10.8601 10.8387c23.8548 23.8528 62.86 23.8528 86.7128 0l52.6595-52.6363c21.6592-21.6583 42.2611-42.5981 42.2611-42.5981s21.3184 19.4818 44.4527 42.5981l196.8636 196.8335c23.8328 23.8538 62.8789 23.8538 86.7118-0.059l10.8191-10.7997C835.3289 451.5463 835.3289 412.5237 811.4741 388.6699z"  horiz-adv-x="1000" />

    
    <glyph glyph-name="fenxiang" unicode="&#58880;" d="M806.102016 440.673024c84.93056 0 154.021888 69.102592 154.021888 154.00448 0 84.912128-69.091328 154.015744-154.021888 154.015744-84.929536 0-154.021888-69.103616-154.021888-154.015744 0-7.515136 0.722944-14.841856 1.788928-22.08768L330.047488 448.06016c-28.127232 29.853696-67.841024 48.60928-111.97952 48.60928-84.929536 0-154.021888-69.091328-154.021888-154.003456 0-84.912128 69.092352-154.0096 154.021888-154.0096 33.088512 0 63.71328 10.602496 88.839168 28.438528l219.40224-146.249728c-9.053184-19.56864-14.22336-41.257984-14.22336-64.202752 0-84.912128 69.066752-154.028032 154.0096-154.028032 84.892672 0 154.008576 69.115904 154.008576 154.028032 0 84.913152-69.115904 154.00448-154.008576 154.00448-41.847808 0-79.77472-16.807936-107.557888-43.99104L346.560512 257.98016c16.072704 24.334336 25.504768 53.398528 25.504768 84.685824 0 20.231168-4.018176 39.513088-11.147264 57.238528L671.828992 519.471872C698.215424 472.517376 748.490752 440.673024 806.102016 440.673024"  horiz-adv-x="1024" />

    
    <glyph glyph-name="suanpan" unicode="&#58890;" d="M96-116l0 800 800 0 0-800-800 0zM832 620l-672 0 0-192 64.544 0c4.768 35.84 23.872 62.688 46.784 62.688 22.944 0 42.048-26.848 46.784-62.688l34.272 0c4.608 36.192 23.84 63.328 46.912 63.328s42.304-27.168 46.912-63.328l226.144 0c4.608 36.192 23.84 63.328 46.912 63.328 23.104 0 42.304-27.168 46.944-63.328l65.792 0 0 192zM832 396l-65.6 0c-4.288-36.832-23.712-64.672-47.104-64.672-23.328 0-42.752 27.808-47.072 64.672l-225.824 0c-4.288-36.832-23.712-64.672-47.072-64.672s-42.784 27.84-47.072 64.672l-33.824 0c-4.128-37.152-23.616-65.312-47.104-65.312s-42.976 28.16-47.104 65.312l-64.224 0 0-224 255.744 0c4.608 36.192 23.872 63.328 46.912 63.328 23.072 0 42.336-27.168 46.944-63.328l31.968 0c4.128 37.152 23.616 65.344 47.136 65.344 23.456 0 42.944-28.192 47.104-65.344l35.84 0c4.448 36.544 23.808 64 47.04 64s42.592-27.456 47.04-64l66.272 0 0 224zM832 140l-66.304 0c-4.448-36.512-23.808-64-47.04-64s-42.592 27.488-47.04 64l-36.16 0c-4.768-35.808-23.872-62.656-46.784-62.656-22.944 0-42.048 26.848-46.816 62.656l-32.128 0c-4.288-36.832-23.712-64.672-47.072-64.672-23.328 0-42.752 27.808-47.072 64.672l-255.584 0 0-192 672 0 0 192z"  horiz-adv-x="1024" />

    
    <glyph glyph-name="dian" unicode="&#58892;" d="M352.328 287.653c0-88.364 71.634-159.998 159.998-159.998s159.998 71.634 159.998 159.998c0 88.364-71.634 159.998-159.998 159.998-88.364 0-159.998-71.634-159.998-159.998z"  horiz-adv-x="1024" />

    
    <glyph glyph-name="liebiao" unicode="&#58910;" d="M961.097728 547.983104c0-12.824576-10.396672-23.221248-23.221248-23.221248L87.033856 524.761856c-12.824576 0-23.221248 10.396672-23.221248 23.221248l0 101.696512c0 12.824576 10.396672 23.221248 23.221248 23.221248l850.842624 0c12.823552 0 23.221248-10.396672 23.221248-23.221248L961.097728 547.983104zM961.097728 248.325888c0-12.823552-10.396672-23.221248-23.221248-23.221248L87.033856 225.10464c-12.824576 0-23.221248 10.396672-23.221248 23.221248l0 101.696512c0 12.824576 10.396672 23.221248 23.221248 23.221248l850.842624 0c12.823552 0 23.221248-10.396672 23.221248-23.221248L961.097728 248.325888zM961.097728-51.66208c0-12.823552-10.396672-23.221248-23.221248-23.221248L87.033856-74.883328c-12.824576 0-23.221248 10.396672-23.221248 23.221248l0 101.696512c0 12.8256 10.396672 23.222272 23.221248 23.222272l850.842624 0c12.823552 0 23.221248-10.395648 23.221248-23.222272L961.097728-51.66208z"  horiz-adv-x="1024" />

    
    <glyph glyph-name="close" unicode="&#58908;" d="M826.641174 616.215942c-174.913732 174.908612-458.533642 174.908612-633.478074 0-174.947502-174.922938-174.947502-458.546577 0-633.452119 174.944432-174.954661 458.565366-174.954661 633.478074 0C1001.587653 157.669364 1001.587653 441.293003 826.641174 616.215942zM713.530505 141.1092c12.498151-12.514012 12.498151-32.759101 0-45.24139-12.498151-12.497639-32.776817-12.497639-45.243244 0L509.910835 254.231607l-158.363123-158.363797c-12.497127-12.497639-32.776817-12.497639-45.274968 0-12.498151 12.482289-12.498151 32.727379 0 45.24139l158.384613 158.371984L306.272744 457.853168c-12.498151 12.481266-12.498151 32.728402 0 45.24139 12.497127 12.483312 32.776817 12.483312 45.274968 0l158.363123-158.363797 158.37745 158.363797c12.466427 12.483312 32.745093 12.483312 45.243244 0 12.498151-12.512988 12.498151-32.760125 0-45.24139L555.160219 299.481184 713.530505 141.1092z"  horiz-adv-x="1024" />

    
    <glyph glyph-name="lock" unicode="&#58885;" d="M787.962 360.94h-54.975v156.625c0 96.825-78.773 175.598-175.598 175.598h-107.46c-96.825 0-175.598-78.773-175.598-175.598v-156.625h-55.635c-38.195 0-69.269-31.074-69.269-69.269v-361.081c0-38.195 31.074-69.269 69.269-69.269h569.267c38.195 0 69.269 31.074 69.269 69.269v361.081c0 38.195-31.073 69.269-69.269 69.269zM354.413 517.565c0 52.667 42.849 95.515 95.515 95.515h107.461c52.667 0 95.515-42.848 95.515-95.515v-156.625h-298.492v156.625z"  horiz-adv-x="1024" />

    
    <glyph glyph-name="qq" unicode="&#58881;" d="M116.435 218.286c-33.54-78.964-38.985-154.297-12.059-168.37 18.572-9.696 47.686 12.382 74.936 52.909 10.791-44.157 37.493-84.137 75.633-116.21-40.004-14.768-66.135-38.886-66.135-66.232 0-44.954 70.709-81.302 157.978-81.302 78.716 0 143.907 29.538 155.94 68.371 3.232 0.049 15.663 0.049 18.796 0 12.083-38.784 77.324-68.371 155.989-68.371 87.267 0 157.978 36.398 157.978 81.302 0 27.297-26.105 51.464-66.135 66.232 38.089 32.123 64.889 72.053 75.631 116.21 27.251-40.527 56.29-62.605 74.887-52.909 26.95 14.073 21.631 89.456-12.032 168.37-26.355 62.058-62.11 107.754-89.457 117.848 0.398 3.929 0.596 7.958 0.596 11.935 0 23.968-6.661 46.146-18.049 64.196 0.199 1.393 0.199 2.834 0.199 4.227 0 11.038-2.636 21.381-7.114 30.332-6.909 161.309-111.93 289.402-281.866 289.402-170.036 0-275.106-128.093-281.943-289.402-4.525-9.001-7.135-19.343-7.135-30.332 0-1.393 0.099-2.835 0.15-4.227-11.288-18.05-17.951-40.178-17.951-64.196 0-3.978 0.15-7.955 0.498-11.935-27.151-10.094-63.028-55.841-89.333-117.848z"  horiz-adv-x="1024" />

    
    <glyph glyph-name="jiantou" unicode="&#58967;" d="M543.97576 69.008069 127.510604 530.991931 896.48735 530.991931Z"  horiz-adv-x="1024" />

    
    <glyph glyph-name="update" unicode="&#58904;" d="M1099.737 284.946q9.216 0 16.895-6.656t11.776-17.407 2.56-24.575-11.776-29.183q-20.479-30.719-50.686-77.821t-76.285-103.42q-13.312-16.383-25.599-22.527t-27.647-4.096q-16.383 2.048-25.599 14.335t-24.575 27.647q-22.527 22.527-43.518 49.662t-38.399 52.222-29.695 44.542-16.383 26.623q-10.24 15.359-11.776 28.671t2.048 22.527 10.24 14.335 13.824 5.12h104.444q0 74.749-30.207 147.963t-86.525 129.531q-52.222 52.222-119.804 77.309t-138.235 24.063-137.723-27.647-119.292-78.845-81.405-121.852-32.255-143.355 20.991-142.843 77.309-119.292q47.102-43.006 94.205-68.094t92.157-36.351 86.013-10.24 75.261 9.216 60.926 22.015 41.982 28.159q24.575 14.335 52.222 15.359t48.126-20.479q25.599-25.599 18.431-52.734t-31.743-51.71q-11.264-11.264-25.599-17.407-67.582-48.126-146.427-63.486t-158.714-2.048-155.642 52.734-136.187 99.836q-73.725 73.725-110.588 166.394t-36.863 189.433 37.375 189.945 111.1 166.906 166.394 111.1 189.433 37.375 189.945-37.375 166.906-111.1q40.959-40.959 69.118-87.037t45.054-93.693 24.063-94.205 7.168-87.549h93.181zM579.563 286.994q0-26.623-18.431-45.566t-45.054-18.943-45.566 18.943-18.943 45.566v192.505q0 26.623 18.943 45.054t45.566 18.431 45.054-18.431 18.431-45.054v-192.505zM516.078 158.999q26.623 0 45.054-18.943t18.431-45.566-18.431-45.054-45.054-18.431-45.566 18.431-18.943 45.054 18.943 45.566 45.566 18.943z"  horiz-adv-x="1135" />

    
    <glyph glyph-name="youjiantou" unicode="&#58988;" d="M48.614141 299.485414C48.614141 555.004444 256.478384 762.868687 512.003879 762.868687c255.51903 0 463.38198-207.864242 463.38198-463.383273 0-255.525495-207.864242-463.388444-463.38198-463.388444C256.478384-163.904323 48.614141 43.959919 48.614141 299.485414L48.614141 299.485414zM909.191758 299.485414c0 219.015758-178.173414 397.186586-397.186586 397.186586-219.020929 0-397.193051-178.172121-397.193051-397.186586 0-219.019636 178.172121-397.191758 397.193051-397.191758C731.018343-97.707636 909.191758 80.464485 909.191758 299.485414L909.191758 299.485414zM567.474424 110.752646l165.761293 163.939556c9.797818 9.667232 12.249212 23.964444 7.378747 35.979636-0.297374 0.757657-1.025293 1.353697-1.387313 2.085495-1.521778 3.075879-3.176727 6.156929-5.72897 8.737616-0.028444 0.029737-0.065939 0.029737-0.094384 0.065939-0.036202 0.029737-0.036202 0.067232-0.067232 0.100848L568.962586 486.489535c-12.907313 12.944808-33.857939 12.974545-46.796283 0.071111-6.491798-6.454303-9.733172-14.964364-9.733172-23.434343 0-8.442828 3.206465-16.914101 9.662061-23.368404l106.843798-107.177374L313.407354 332.580525c-18.302707 0-33.101576-14.828606-33.101576-33.096404 0-18.27297 14.797576-33.101576 33.101576-33.101576l317.287434 0-109.756768-108.56598c-6.556444-6.454303-9.830141-14.995394-9.830141-23.53002 0-8.409212 3.176727-16.818424 9.566384-23.272727C533.513051 98.009535 554.467556 97.878949 567.474424 110.752646L567.474424 110.752646zM567.474424 110.752646"  horiz-adv-x="1024" />

    
    <glyph glyph-name="iconfonttuige" unicode="&#58945;" d="M958.769 92.659 958.769 481.568c-3.711 109.482-109.946 112.266-109.946 112.266L350.123 593.834c-13.917 0-21.958-7.886-21.958-7.886L77.113 308.531c-8.234-8.466-7.886-19.484-7.886-19.484 0-14.845 8.582-23.195 8.582-23.195l248.191-274.943c9.587-9.587 20.721-8.505 20.721-8.505l502.103 0C961.553-11.565 958.769 92.659 958.769 92.659zM700.82 182.777c-7.703-7.703-18.536-7.014-18.536-7.014-14.154 0-20.667 7.765-20.667 7.765l-63.835 63.835-63.835-63.835c0 0-6.514-7.765-20.667-7.765 0 0-10.834-0.689-18.538 7.014 0 0-8.642 8.893-8.642 19.914 0 0 0 14.154 8.768 21.292l63.218 63.077-63.928 63.928c-9.895 9.895-7.891 21.167-7.891 21.167 0 12.149 7.641 18.287 7.641 18.287 8.392 8.392 18.661 8.517 18.661 8.517 13.402 0 21.292-8.517 21.292-8.517l63.92-63.776 63.919 63.776c0 0 7.891 8.517 21.294 8.517 0 0 10.27-0.125 18.661-8.517 0 0 7.64-6.137 7.64-18.287 0 0 2.004-11.273-7.89-21.167l-63.928-63.928 63.218-63.077c8.768-7.139 8.768-21.292 8.768-21.292C709.463 191.67 700.82 182.777 700.82 182.777z"  horiz-adv-x="1024" />

    
    <glyph glyph-name="kongjian" unicode="&#58917;" d="M997.817379 408.208552l-335.695448 48.463448L511.982345 758.946207l-150.121931-302.274207L26.182621 408.208552l242.899862-235.272828-57.361655-332.199724 300.243862 156.883862 300.296828-156.883862-57.361655 332.199724L997.817379 408.208552zM659.526621 363.01131 399.430621 125.814069l260.096 0 0-34.498207L316.733793 91.315862l0 34.498207 260.096 237.214897L332.782345 363.028966l0 32.238345 326.761931 0L659.544276 363.01131z"  horiz-adv-x="1024" />

    
    <glyph glyph-name="weixin" unicode="&#58918;" d="M693.12 464.736c11.776 0 23.36-0.896 35.008-2.176-31.36 146.048-187.456 254.528-365.696 254.528C163.2 717.088 0 581.344 0 408.864c0-99.52 54.272-181.248 145.024-244.736L108.8 55.136l126.72 63.488c45.312-8.896 81.664-18.112 126.912-18.112 11.392 0 22.656 0.512 33.792 1.344-7.04 24.256-11.2 49.6-11.2 76.032C385.088 336.224 521.024 464.736 693.12 464.736zM498.304 562.976c27.392 0 45.376-17.984 45.376-45.248 0-27.136-17.984-45.312-45.376-45.312-27.072 0-54.336 18.176-54.336 45.312C443.968 545.056 471.168 562.976 498.304 562.976zM244.672 472.416c-27.2 0-54.592 18.176-54.592 45.312 0 27.264 27.392 45.248 54.592 45.248S289.92 545.056 289.92 517.728C289.92 490.592 271.872 472.416 244.672 472.416zM1024 182.24c0 144.896-145.024 262.976-307.904 262.976-172.48 0-308.224-118.144-308.224-262.976 0-145.28 135.808-262.976 308.224-262.976 36.096 0 72.512 9.024 108.736 18.112l99.392-54.528-27.264 90.624C969.728 28.128 1024 100.512 1024 182.24zM616.128 227.616c-17.984 0-36.224 17.92-36.224 36.224 0 18.048 18.24 36.224 36.224 36.224 27.52 0 45.376-18.176 45.376-36.224C661.504 245.536 643.648 227.616 616.128 227.616zM815.488 227.616c-17.856 0-36.032 17.92-36.032 36.224 0 18.048 18.112 36.224 36.032 36.224 27.264 0 45.376-18.176 45.376-36.224C860.864 245.536 842.752 227.616 815.488 227.616z"  horiz-adv-x="1024" />

    
    <glyph glyph-name="wodehongbaoicon" unicode="&#58891;" d="M1007.950977 740.408475c3.119037 7.780197 1.987261 17.179264-4.0175 25.570375-3.436262 4.792143-8.035 8.635681-13.196557 11.373025-16.515139 21.093411-42.214451 34.648125-71.079872 34.648125l-812.003701 0c-49.823755 0-90.221838-40.382733-90.221838-90.221838l0-842.079694c0-49.839105 40.398082-90.222861 90.221838-90.222861l812.003701 0c49.824779 0 90.222861 40.383756 90.222861 90.222861L1009.879909 721.778162C1009.880933 728.16564 1009.213737 734.396551 1007.950977 740.408475zM899.165342 751.852108 528.708032 579.579533 158.249699 751.852108 899.165342 751.852108zM949.733041-120.301532c0-16.590863-13.465686-30.074969-30.074969-30.074969l-812.003701 0c-16.60826 0-30.073946 13.484106-30.073946 30.074969L77.580424 720.136779l412.380118-191.773721c0.236384-0.358157 0.474814-0.715291 0.729617-1.069355 8.54256-11.910261 24.232914-17.99177 38.015825-15.663748 13.777795-2.328022 29.478382 3.753487 38.018895 15.663748 0.25378 0.354064 0.491187 0.710175 0.728594 1.067308L949.733041 706.136927 949.733041-120.301532zM543.436478 279.857241l-19.955494 0c-0.426719 1.26276-0.337691 2.702552-1.013073 3.90596L448.119599 433.224234c-7.401574 13.098319-27.41642 15.477506-44.670385 5.285377-17.257036-10.160407-25.244964-29.046546-17.84339-42.144866l57.960063-116.507504-58.372455 0c-20.409842 0-36.945447-16.505929-36.945447-36.829813 0-20.35356 16.535605-36.859489 36.945447-36.859489l107.067504 0L492.260935 157.357256 385.193431 157.357256c-20.409842 0-36.945447-16.474206-36.945447-36.82879 0-20.35356 16.535605-36.829813 36.945447-36.829813l107.067504 0 0-107.520829c0-20.058848 16.299221-36.33044 36.432771-36.33044 20.117177 0 36.433794 16.271592 36.433794 36.33044L565.1275 83.698652 672.192957 83.698652c20.396539 0 36.945447 16.477276 36.945447 36.829813 0 20.355607-16.549931 36.82879-36.945447 36.82879L565.1275 157.357256 565.1275 206.168961 672.192957 206.168961c20.396539 0 36.945447 16.505929 36.945447 36.859489 0 20.323884-16.549931 36.829813-36.945447 36.829813l-47.755654 0 57.842383 120.559796c7.475252 13.657045-0.585331 33.334199-18.003026 43.938722-17.415648 10.601452-37.591153 8.136308-45.081755-5.52176l-75.229378-156.833955C543.611463 281.326708 543.716864 280.5316 543.436478 279.857241z"  horiz-adv-x="1024" />

    
    <glyph glyph-name="tuoyuan1" unicode="&#58902;" d="M512-212C229.228606-212 0 17.228606 0 300 0 582.771394 229.228606 812 512 812 794.771394 812 1024 582.771394 1024 300 1024 17.228606 794.771394-212 512-212ZM512 788.727273C242.082909 788.727273 23.272727 569.917091 23.272727 300 23.272727 30.082909 242.082909-188.727273 512-188.727273 781.917091-188.727273 1000.727273 30.082909 1000.727273 300 1000.727273 569.917091 781.917091 788.727273 512 788.727273ZM512 28.484848C362.046061 28.484848 240.484848 150.046061 240.484848 300 240.484848 449.953939 362.046061 571.515152 512 571.515152 661.953939 571.515152 783.515152 449.953939 783.515152 300 783.515152 150.046061 661.953939 28.484848 512 28.484848Z"  horiz-adv-x="1024" />

    
    <glyph glyph-name="licai" unicode="&#58901;" d="M218.009757 97.40468c5.626137-6.426363 13.675464-10.018168 22.092158-10.018168 1.189082 0 2.378164 0.092098 3.613294 0.230244 9.651824 1.188058 18.09103 7.065929 22.550599 15.711843l143.854339 279.769868 128.575354-125.761262c6.312776-6.130627 14.957667-9.172917 23.784706-8.211009 8.736988 0.959861 16.60519 5.786797 21.407566 13.173021L752.167406 520.136563l27.877931-20.720927c11.915377-8.849552 25.179472-13.515828 38.376029-13.515828 26.780947 0 48.598858 18.662035 55.552224 47.524386l49.720402 205.969025c5.875824 24.287149-0.686638 39.268352-7.226588 47.569412-13.905708 17.678638-39.977503 20.514219-65.180512 4.825912L673.927461 681.782104c-18.685571-11.57257-29.845749-29.433356-30.66951-48.987714-0.822738-19.554358 8.827039-38.262442 26.438139-51.389414l35.174104-26.117844L554.200636 324.411857l-131.433448 128.577401c-6.678096 6.517437-16.032138 9.490142-25.272593 7.981788-9.193383-1.486864-17.152658-7.272637-21.429055-15.552208L233.698065 168.644187l-79.085196 90.085738L154.612868 612.14407c0 36.041868 29.320793 65.36266 65.363683 65.36266l387.856585 0c16.237823 0 29.387307 13.173021 29.387307 29.388331 0 16.237823-13.149485 29.411867-29.387307 29.411867L219.976552 736.306928c-68.450998 0-124.139322-55.712883-124.139322-124.161834l0-521.165754c0-68.473511 55.688323-124.162858 124.139322-124.162858l532.829398 0c68.452022 0 124.139322 55.689347 124.139322 124.162858L876.945271 424.21798c0 16.21531-13.150508 29.389354-29.388331 29.389354s-29.388331-13.174044-29.388331-29.389354l0-333.240687c0-36.043914-29.319769-65.386196-65.363683-65.386196L219.976552 25.591097c-36.042891 0-65.363683 29.343305-65.363683 65.386196l0 78.626755L218.009757 97.40468zM702.857351 630.302639c0.480954 0.433882 1.167592 0.959861 2.059915 1.508353l155.655106 96.535637-43.72792-181.086311c-0.160659-0.595564-0.319272-1.098008-0.458441-1.532913-0.364297 0.229221-0.776689 0.525979-1.257643 0.892323l-110.348224 81.989339C703.956382 629.249657 703.314769 629.822708 702.857351 630.302639z"  horiz-adv-x="1024" />

    
    <glyph glyph-name="fangzi" unicode="&#58897;" d="M910.757355 284.964562l-58.799174 58.797128 0-333.194638c-7.607258-114.074082-117.600395-117.595278-117.600395-117.595278L653.998573-107.028227c0.902556 6.471388 1.962701 12.902868 1.962701 19.59836L655.961274 147.767853c0 75.79322-61.420885 137.196709-137.194662 137.196709-75.778894 0-137.198755-61.402465-137.198755-137.196709l0-235.198743c0-6.695492 1.063215-13.126972 1.961678-19.59836l-99.958596 0c-110.697171 22.01541-117.595278 117.595278-117.595278 117.595278L165.975661 343.76169l-58.797128-58.797128-39.198767 19.599384L479.567845 716.148955c42.567491 30.550807 78.398558 0 78.398558 0l391.989719-411.585009L910.757355 284.964562 910.757355 284.964562z"  horiz-adv-x="1024" />

    
    <glyph glyph-name="gou" unicode="&#58954;" d="M511.974401 812c-282.75527 0-511.974401-229.219131-511.974401-511.974401 0-282.757318 229.219131-511.974401 511.974401-511.974401 282.757318 0 511.974401 229.217083 511.974401 511.974401C1023.948803 582.780869 794.729672 812 511.974401 812zM805.63063 432.825615 474.510162 101.703099c0 0-0.004096-0.004096-0.010239-0.010239-15.265029-15.269125-38.541433-17.652877-56.31104-7.157402-3.290971 1.945503-6.393536 4.333351-9.219635 7.157402-0.002048 0.004096-0.006144 0.006144-0.006144 0.006144l-190.642884 190.642884c-18.095223 18.095223-18.095223 47.4375 0 65.536819 18.095223 18.095223 47.4375 18.095223 65.532723 0l157.884714-157.884714 298.362298 298.362298c18.097271 18.095223 47.439548 18.095223 65.534771 0C823.725854 480.261067 823.725854 450.920838 805.63063 432.825615z"  horiz-adv-x="1025" />

    
    <glyph glyph-name="shuaxin" unicode="&#58916;" d="M815.296 114.528 960 326.304l-102.336 0c-13.632 207.232-185.728 371.392-396.416 371.392C241.6 697.696 64 519.648 64 299.936c0-219.52 178.048-397.632 397.696-397.632 98.496 0 188.416 36.032 257.92 95.424l-53.184 68.48C611.712 18.336 540.16-11.04 461.696-11.04c-171.84 0-311.104 139.328-311.104 310.976 0 171.904 139.328 311.168 311.104 311.168 162.88 0 295.936-125.376 309.312-284.8l-100.416 0L815.296 114.528 815.296 114.528z"  horiz-adv-x="1024" />

    
    <glyph glyph-name="jian1" unicode="&#58986;" d="M678.143483 277.751277 344.448448 277.751277c-12.786211 0-23.163559 10.378371-23.163559 23.162536 0 12.732999 10.377348 23.060205 23.163559 23.060205l333.696058 0c12.734022 0 23.060205-10.327206 23.060205-23.060205C701.203688 288.129648 690.878528 277.751277 678.143483 277.751277zM511.295454-147.391517c-247.214405 0-448.305329 201.089901-448.305329 448.305329 0 247.164263 201.090924 448.279746 448.305329 448.279746 247.164263 0 448.255187-201.116507 448.255187-448.279746C959.550641 53.698384 758.46074-147.391517 511.295454-147.391517zM511.295454 702.967748c-221.747383 0-402.080541-180.360787-402.080541-402.054959 0-221.696218 180.333158-402.080541 402.080541-402.080541 221.695195 0 402.030399 180.3833 402.030399 402.080541C913.325853 522.60696 732.990648 702.967748 511.295454 702.967748z"  horiz-adv-x="1024" />

    
    <glyph glyph-name="fangzi1" unicode="&#58898;" d="M947.669544 327.925003c-24.63405 24.723078-409.56091 411.017074-411.128615 412.56022-7.40669 7.305383-17.897625 11.008728-31.190373 11.008728-12.219299 0-22.162766-3.717671-29.625738-11.122315L65.908082 322.210861l-2.071172-2.116197 0-13.360286c0-20.815071 6.995321-40.900525 19.699668-56.561204 12.757558-15.69547 29.668717-25.069979 45.237297-25.069979l50.089815 0 0-287.747563c0-59.337433 41.573861-85.900416 82.774215-85.900416 2.553149 0 4.578272 0.12075 4.817726 0.169869l165.224042 0L431.679673 171.976208c0 0.821715 0.338714 1.62808 0.731664 2.294252l155.750273 0.184195c0.602727-1.289366 1.164522-2.790556 1.245364-3.441379 0.261966-8.637728 0.060375-214.025515-0.007163-281.518698l-0.024559-37.869492 164.118871 0c30.237675 0 55.803957 14.173814 73.925686 40.9916 11.584849 17.105586 16.063861 33.793664 16.835434 36.936237l0.765433 3.065825 1.075495 294.423613 48.206932 0c22.242584 0 40.536228 9.961886 51.507094 28.043706 7.699356 12.68695 11.443633 28.949332 11.443633 49.708122l0 13.530155L947.669544 327.925003zM779.89747 292.894162l-1.090844-350.681918c-2.856048-8.227382-10.44898-24.75173-25.310456-24.75173l-97.670483 0c0.049119 41.333384 0.280386 245.028623-0.046049 255.485789-0.278339 9.782807-3.741207 25.076118-12.616342 38.663578-11.981892 18.378579-29.851888 28.496008-50.320059 28.496008l-163.616428 0c-34.057677 0-63.932078-31.838126-63.932078-68.12968l0-254.514671-100.590999 0.035816-3.065825-0.198521c-12.386098 0-16.361643 4.870938-16.361643 20.050662L245.276263 290.933507 135.740544 290.933507c-0.951675 1.082658-2.134617 2.683109-3.157923 4.821819l373.730866 381.38008 382.89048-384.240221L779.89747 292.895185z"  horiz-adv-x="1024" />

    
    <glyph glyph-name="jikediancanicon09" unicode="&#59255;" d="M511.584 754.496c-251.04 0-455.264-204.224-455.264-455.232 0-251.04 204.224-455.264 455.264-455.264 251.04 0 455.264 204.224 455.264 455.264C966.848 550.272 762.624 754.496 511.584 754.496zM511.584-108c-224.576 0-407.264 182.688-407.264 407.264 0 224.544 182.688 407.232 407.264 407.232s407.264-182.688 407.264-407.232C918.848 74.688 736.16-108 511.584-108zM683.296 332 544 332l0 138.976c0 13.248-18.752 24-32 24-13.248 0-32-10.752-32-24L480 332l-140.128 0c-13.248 0-24-18.752-24-32 0-13.248 10.752-32 24-32L480 268l0-140.48c0-13.248 18.752-24 32-24 13.248 0 32 10.752 32 24L544 268l139.296 0c13.248 0 24 18.752 24 32C707.296 313.248 696.576 332 683.296 332z"  horiz-adv-x="1024" />

    
    <glyph glyph-name="jikediancanicon26" unicode="&#58933;" d="M602.08-148.576l-178.592 0c-169.408 0-303.2 0-303.2 87.872l0 17.568c0 164.672 136.032 298.624 303.2 298.624l178.592 0c167.168 0 303.2-133.952 303.2-298.624l0-17.568C905.248-148.576 764.736-148.576 602.08-148.576zM423.456 202.816c-138.112 0-250.496-110.304-250.496-245.92l0-17.568c0-35.168 144.768-35.168 250.496-35.168l178.592 0c87.52 0 250.496 0 250.496 35.168l0 17.568c0 135.616-112.384 245.92-250.496 245.92L423.456 202.816zM503.84 273.12c-132.736 0-240.672 106.4-240.672 237.184s107.936 237.152 240.672 237.152 240.672-106.368 240.672-237.152S636.544 273.12 503.84 273.12zM315.872 510.304c0-101.696 84.32-184.48 187.968-184.48s187.968 82.752 187.968 184.48-84.32 184.448-187.968 184.448S315.872 612 315.872 510.304z"  horiz-adv-x="1024" />

    
    <glyph glyph-name="jikediancanicon34" unicode="&#58934;" d="M592.352-140.448l-179.68 0c-169.152 0-302.784 0-302.784 85.952l0 17.696c0 164.416 135.808 298.144 302.784 298.144l179.68 0c166.976 0 302.816-133.76 302.816-298.144l0-17.696C895.168-140.448 754.848-140.448 592.352-140.448zM493.536 284.096c-132.224 0-239.808 106.016-239.808 236.288s107.584 236.288 239.808 236.288c132.224 0 239.808-105.984 239.808-236.288S625.76 284.096 493.536 284.096z"  horiz-adv-x="1024" />

    
    <glyph glyph-name="jian" unicode="&#58922;" d="M94.83132 335.815717l832.971245 0 0-71.631434-832.971245 0 0 71.631434Z"  horiz-adv-x="1024" />

    
    <glyph glyph-name="tishi" unicode="&#58909;" d="M511.512906 747.620737c-246.416226 0-446.121594-199.736067-446.121594-446.116477 0-246.385527 199.705368-446.12671 446.121594-446.12671 246.348688 0 446.121594 199.742207 446.121594 446.12671C957.635523 547.88467 757.861594 747.620737 511.512906 747.620737zM510.175445-16.538283c-35.631522 0-64.451918 28.824489-64.451918 64.451918 0 35.595706 28.819372 64.451918 64.451918 64.451918 35.626405 0 64.451918-28.856211 64.451918-64.451918C574.626339 12.286206 545.80185-16.538283 510.175445-16.538283zM594.58081 462.580842c0-0.115634-0.031722-0.231267-0.063445-0.466628l-0.057305-0.204661-0.089028-0.461511-0.026606-0.172939-0.057305-0.346901-0.063445-0.288572c0 0-54.426587-253.323543-54.453193-253.791194 0 0 3.747347 19.083637 0-0.031722-3.747347-19.11536-13.273305-29.596062-29.596062-29.596062-16.349363 0-24.930809 12.113899-29.973662 31.748075s-53.004191 246.060115-53.035914 246.264776c0 0-0.026606 0.089028-0.057305 0.204661l-0.031722 0.199545c-0.031722 0.147356-0.083911 0.293689-0.083911 0.441045l-0.057305 0.346901-0.057305 0.320295c-0.026606 0.083911-0.057305 0.320295-0.057305 0.320295l-0.057305 0.346901-0.057305 0.147356-0.089028 0.493234c0 0-0.031722 0.199545-0.057305 0.288572l-0.057305 0.320295c0 0-0.031722 0.231267-0.089028 0.461511 0 0 0 0.089028-0.026606 0.178055l-0.031722 0.231267c0 0-0.083911 0.288572-0.115634 0.435928l-0.057305 0.346901-0.057305 0.325411-0.057305 0.288572-0.057305 0.346901-0.031722 0.172939-0.089028 0.461511-0.057305 0.325411c0 0-0.052189 0.231267-0.052189 0.346901-1.159406 5.637394-1.799996 11.499915-1.799996 17.483186 0 47.634904 38.534642 86.206384 86.201268 86.206384 47.661509 0 86.206384-38.571481 86.206384-86.206384C596.381829 474.079734 595.741239 468.217213 594.58081 462.580842z"  horiz-adv-x="1024" />

    
    <glyph glyph-name="zhifeiji" unicode="&#58886;" d="M951.351911 704.219251c-2.75781 2.182712-6.531763 2.568499-9.607822 0.943488L74.131883 261.489918c-3.229554-1.658779-5.132904-5.081739-4.852518-8.697079 0.318248-3.613294 2.759857-6.686283 6.217608-7.789407l290.425555-92.314499c3.055592-0.958838 6.355755-0.242524 8.698103 1.888L776.396227 516.568431 455.602014 136.8502c-1.940189-2.287089-2.602268-5.41329-1.746784-8.293897 0.853437-2.882654 3.090385-5.154393 5.967922-6.02625l322.267774-98.165764c0.832971-0.26299 1.713015-0.38374 2.583848-0.38374 1.532913 0 3.069919 0.402159 4.435009 1.171686 2.128477 1.219781 3.683902 3.263323 4.259 5.65786L954.491415 695.087267C955.317223 698.490783 954.089255 702.052912 951.351911 704.219251zM554.116725 52.029372l-89.069595 27.399023c-2.690272 0.873903-5.655813 0.348947-7.928576-1.342578-2.288113-1.697665-3.63376-4.367471-3.63376-7.196912l0-168.107719c0-3.983731 2.622734-7.475252 6.460132-8.591679 0.805342-0.228197 1.644453-0.349971 2.486634-0.349971 3.00238 0 5.881964 1.51961 7.544837 4.157693l89.059362 140.703579c1.503237 2.359744 1.818415 5.276167 0.841158 7.877411C558.916031 49.197884 556.784484 51.206634 554.116725 52.029372z"  horiz-adv-x="1024" />

    
    <glyph glyph-name="qianbao" unicode="&#58928;" d="M845.554842 204.498926c-26.597775 99.2914-83.560114 175.944198-172.612313 228.074485-10.233062 5.990434-21.052478 10.982122-31.612998 16.444531 0.067538 0.155543 0.116657 0.488117 0.309038 0.672312 1.77646 1.710968 3.587712 3.385097 5.371334 5.088902 18.328437 17.515932 34.783201 37.779442 43.383066 61.684898 4.168949 11.588943 5.198395 16.631796 8.092305 27.39186 5.385661 33.971719-0.804319 54.627155-20.99108 71.796186-27.28032 23.204491-58.232263 25.952068-90.928942 12.329816-2.26867-0.944512-3.773953-1.63422-6.034437 0.505513-42.083467 39.809681-109.645213 40.181141-152.019299 0.874927-1.980097-1.836835-3.406586-2.300392-5.976108-1.11745-17.195637 7.913227-35.166941 9.607822-53.615105 5.79396-34.958186-7.227612-63.87682-36.977169-58.745962-77.605495 4.452405-35.250852 18.110473-65.754586 41.657772-92.049462 4.833075-5.396917 9.970072-10.522658 15.170514-15.985066-1.296529-0.62831-2.579755-1.285273-3.886517-1.883907C242.836701 391.495854 161.589258 271.951177 152.075581 135.973226c-2.63092-37.601386-0.431835-74.832336 9.007141-111.705128 14.865569-58.07979 65.940828-101.592816 127.264499-101.4516 144.511301 0.333598 289.025673-0.033769 433.536974 0.189312 46.424332 0.071631 82.165348 20.915355 108.094904 58.868759 13.180184 19.293415 19.342534 41.203424 22.933315 64.154135C861.258499 99.408449 859.528088 152.331799 845.554842 204.498926zM815.886125 71.736203c-3.108804-20.906146-6.470365-42.829458-17.885346-60.403718-22.456455-34.5724-65.479317-53.558823-105.686041-53.624315-125.157511-0.202615-250.317069 0.132006-375.473557-0.171915-53.110615-0.127913-103.2035 30.379914-116.077715 83.284845-8.17417 33.587979-7.291057 75.606978-5.012154 109.85806 8.240685 123.863029 116.795053 240.668315 220.964554 290.784736 1.1328 0.545422-30.023804 28.743648-34.21015 33.659611-20.394493 23.951505-33.129538 43.347251-36.985356 75.456552-4.733814 39.421848 23.821545 51.05377 41.10314 54.812373 15.977903 3.475148 49.895387-14.119579 51.610448-12.446473 36.69883 35.804461 95.211479 35.465746 131.659599-0.797156 1.957585-1.949398 3.261277-1.321088 5.226025-0.460488 28.317952 12.407588 52.265364 20.057825 75.892481-1.079588 17.483186-15.640212 17.891486-27.258831 13.603833-51.816133-2.606361-10.19213-18.775622-37.440727-24.949228-45.884027-22.815635-31.201629-45.147246-51.113121-46.686299-52.670593-0.165776-0.167822 48.765657-23.879873 56.94699-30.314423 75.535347-59.408041 126.459157-105.35756 149.494803-195.802478C811.524794 166.603851 823.115783 120.361667 815.886125 71.736203zM504.417301 285.956146l-42.800805 47.437405c-5.944386 6.588045-10.106172 11.529591-12.483312 14.823614-4.755304 4.612041-10.997472 8.400321-18.72548 11.364839-7.728008 2.964518-14.266935 1.153266-19.61678-5.435803-4.755304-7.247054-5.944386-14.33038-3.567245-21.24793 2.378164-6.91755 5.053086-12.353352 8.024767-16.306384l13.375635-13.836123c6.538927-7.906064 13.672394-16.471137 21.400403-25.695219 8.91709-10.5421 18.72548-21.742187 29.426193-33.601282l-0.8913-20.753673-60.634985 0c-5.349845 0-9.956769-2.305509-13.820774-6.91755s-5.796006-9.553587-5.796006-14.823614c0-5.27105 1.783623-9.883091 5.349845-13.836123s8.322549-5.930059 14.266935-5.930059l60.634985 0 0-34.589796-60.634985 0c-5.349845 0-9.956769-1.812275-13.820774-5.435803-3.864004-3.623527-5.796006-8.400321-5.796006-14.33038-0.594541-5.27105 1.040702-9.718339 4.904707-13.341866 3.864004-3.623527 8.768711-5.435803 14.713097-5.435803l60.634985 0 0-19.765159c0.594541-9.224082 3.269463-15.647375 8.024767-19.270902 4.755304-3.623527 10.700713-5.435803 17.83418-5.435803 7.133468-0.659009 12.929474 1.812275 17.388019 7.411807 4.458545 5.600555 6.687306 11.364839 6.687306 17.294898L528.494673 108.067666l62.418608 0c5.944386 0 10.849092 1.482771 14.713097 4.447289s5.499248 7.741311 4.904707 14.33038c0 13.836123-8.322549 20.753673-24.967648 20.753673l-57.06774 0 0.8913 33.601282 57.960063 0.988514c8.322549-0.659009 14.266935 1.153266 17.83418 5.435803 3.567245 4.282536 5.349845 9.388834 5.349845 15.31787 0 5.27105-1.932002 10.047844-5.796006 14.33038s-9.956769 6.423293-18.279319 6.423293l-57.960063 0 0 18.777669c10.106172 10.541077 19.320021 20.753673 27.64257 30.636764 7.133468 7.906064 14.266935 15.97688 21.400403 24.212448 7.133468 8.235568 12.483312 14.000875 16.050558 17.294898 13.672394 13.177114 16.645099 24.706705 8.91709 34.589796-4.160763 5.930059-9.511631 8.894577-16.050558 8.894577s-12.483312-2.635013-17.83418-7.906064c-2.972705-2.635013-8.024767-7.411807-15.159258-14.33038-7.133468-6.91755-14.266935-14.000875-21.400403-21.24793C523.737322 306.051833 514.523473 296.498246 504.417301 285.956146L504.417301 285.956146z"  horiz-adv-x="1024" />

    
    <glyph glyph-name="scan" unicode="&#58883;" d="M864.224 820l-704.448 0c-52.896 0-95.776-42.88-95.776-95.776l0-160.224c0-17.664 14.336-32 32-32s32 14.336 32 32l0 128.096c0 35.296 28.608 63.904 63.904 63.904l640.224 0c35.264 0 63.872-28.608 63.872-63.904l0-128.096c0-17.664 14.336-32 32-32s32 14.336 32 32l0 160.224c0 52.896-42.88 95.776-95.776 95.776zM928 212c-17.664 0-32-14.336-32-32l0-128.096c0-35.296-28.608-63.904-63.904-63.904l-640.192 0c-35.296 0-63.904 28.608-63.904 63.904l0 128.096c0 17.664-14.336 32-32 32s-32-14.336-32-32l0-160.224c0-52.896 42.88-95.776 95.776-95.776l704.416 0c52.928 0 95.808 42.88 95.808 95.776l0 160.224c0 17.664-14.336 32-32 32zM928.16 404l-832.32 0c-17.568 0-31.84-14.336-31.84-32s14.272-32 31.84-32l832.288 0c17.6 0 31.872 14.336 31.872 32s-14.272 32-31.84 32z"  horiz-adv-x="1024" />

    
    <glyph glyph-name="home" unicode="&#58884;" d="M953.248 362.528l-420.544 449.344c-5.056 5.024-11.648 7.296-18.464 7.744l-5.152 0c-6.816-0.416-13.408-2.688-18.464-7.744l-417.344-449.344c-11.616-11.648-10.912-31.168 1.6-43.68 0.192-0.192 0.416-0.256 0.608-0.416 5.568-5.984 13.28-9.76 21.888-9.76l94.624 0 0-352.736c0-9.408 4.256-17.632 10.72-23.488 5.6-6.624 13.536-10.976 22.656-10.976l191.648 0c8.768 0 16.576 3.968 22.144 10.176 7.168 5.856 12.032 14.368 12.032 24.352l0 9.344c-0.16 0.896-0.544 1.696-0.544 2.656l0 196c0 8.832 7.168 16 16 16l93.344 0c8.832 0 16-7.168 16-16l0-196c0-0.704-0.32-1.312-0.416-1.984l0-10.016c0-9.984 4.864-18.496 12.032-24.352 5.568-6.208 13.376-10.176 22.144-10.176l191.648 0c9.12 0 17.056 4.352 22.656 10.976 6.496 5.856 10.72 14.08 10.72 23.488l0 352.736 94.624 0c8.736 0 16.512 3.936 22.08 10.112 0.032 0.032 0.096 0.064 0.128 0.096 12.512 12.448 13.216 32 1.632 43.648zM417.376 244.672c-16.896 0-30.592-14.336-30.592-32 0-0.736 0.352-1.344 0.384-2.08l0-225.12-131.168 0 0 354.624c0 4.576-1.024 8.864-2.752 12.768-4.576 11.616-15.456 19.808-28.224 19.808l-55.68 0 324.896 352.512c15.808 15.808 19.744 15.872 34.816 0l327.712-352.544-54.976 0c-12.768 0-23.648-8.192-28.224-19.808-1.728-3.936-2.752-8.224-2.752-12.768l0-354.624-131.2 0 0 226.624c0 0.096-0.064 0.192-0.064 0.288s0.064 0.192 0.064 0.288c0 17.664-13.696 32-30.592 32l-191.648 0z"  horiz-adv-x="1024" />

    
    <glyph glyph-name="jiantou1" unicode="&#58924;" d="M959.429379 468.785148 890.590548 537.621932 511.268336 158.300744 131.944078 537.621932 63.105247 468.785148 501.1857 30.705718 521.348925 30.705718Z"  horiz-adv-x="1024" />

    
    <glyph glyph-name="qianbao1" unicode="&#58929;" d="M845.554842 204.498926c-26.597775 99.2914-83.560114 175.944198-172.612313 228.074485-10.233062 5.990434-21.052478 10.982122-31.612998 16.444531 0.067538 0.155543 0.116657 0.488117 0.309038 0.672312 1.77646 1.710968 3.587712 3.385097 5.371334 5.088902 18.328437 17.515932 34.783201 37.779442 43.383066 61.684898 4.168949 11.588943 5.198395 16.631796 8.092305 27.39186 5.385661 33.971719-0.804319 54.627155-20.99108 71.796186-27.28032 23.204491-58.232263 25.952068-90.928942 12.329816-2.26867-0.944512-3.773953-1.63422-6.034437 0.505513-42.083467 39.809681-109.645213 40.181141-152.019299 0.874927-1.980097-1.836835-3.406586-2.300392-5.976108-1.11745-17.195637 7.913227-35.166941 9.607822-53.615105 5.79396-34.958186-7.227612-63.87682-36.977169-58.745962-77.605495 4.452405-35.250852 18.110473-65.754586 41.657772-92.049462 4.833075-5.396917 9.970072-10.522658 15.170514-15.985066-1.296529-0.62831-2.579755-1.285273-3.886517-1.883907-120.279411-55.019081-201.526853-174.563758-211.040531-310.541709-2.63092-37.601386-0.431835-74.832336 9.007141-111.705128 14.865569-58.07979 65.940828-101.592816 127.264499-101.4516 144.511301 0.333598 289.025673-0.033769 433.536974 0.189312 46.424332 0.071631 82.165348 20.915355 108.094904 58.868759 13.180184 19.293415 19.342534 41.203424 22.933315 64.154135C861.258499 99.408449 859.528088 152.331799 845.554842 204.498926zM605.626377 112.514955c-3.864004-2.964518-8.768711-4.447289-14.713097-4.447289l-62.418608 0 0-19.768229c0-5.930059-2.228761-11.694343-6.687306-17.294898-4.458545-5.599532-10.254551-8.070816-17.388019-7.411807-7.133468 0-13.078877 1.812275-17.83418 5.435803-4.755304 3.623527-7.430226 10.04682-8.024767 19.270902l0 19.765159-60.634985 0c-5.944386 0-10.849092 1.812275-14.713097 5.435803s-5.499248 8.070816-4.904707 13.341866c0 5.930059 1.932002 10.706853 5.796006 14.33038s8.470929 5.435803 13.820774 5.435803l60.634985 0 0 34.589796-60.634985 0c-5.944386 0-10.700713 1.977028-14.266935 5.930059-3.566222 3.953032-5.349845 8.565073-5.349845 13.836123 0 5.270027 1.932002 10.211573 5.796006 14.823614 3.864004 4.612041 8.470929 6.91755 13.820774 6.91755l60.634985 0 0.8913 20.753673c-10.700713 11.859096-20.509103 23.059182-29.426193 33.601282-7.728008 9.224082-14.861476 17.789155-21.400403 25.695219l-13.375635 13.836123c-2.971681 3.953032-5.646604 9.388834-8.024767 16.306384-2.37714 6.91755-1.188058 14.000875 3.567245 21.24793 5.349845 6.589069 11.888771 8.400321 19.61678 5.435803 7.728008-2.964518 13.970176-6.752798 18.72548-11.364839 2.37714-3.294023 6.538927-8.235568 12.483312-14.823614l42.800805-47.437405c10.106172 10.5421 19.320021 20.095687 27.644617 28.661783 7.133468 7.247054 14.266935 14.33038 21.400403 21.24793 7.134491 6.918573 12.186554 11.695367 15.159258 14.33038 5.350868 5.27105 11.295254 7.906064 17.83418 7.906064s11.889795-2.964518 16.050558-8.894577c7.728008-9.883091 4.755304-21.412682-8.91709-34.589796-3.567245-3.294023-8.91709-9.05933-16.050558-17.294898-7.133468-8.235568-14.266935-16.306384-21.400403-24.212448-8.322549-9.883091-17.536398-20.095687-27.64257-30.636764l0-18.777669 57.960063 0c8.322549 0 14.415314-2.140757 18.279319-6.423293 3.864004-4.282536 5.796006-9.05933 5.796006-14.33038 0-5.929036-1.782599-11.035334-5.349845-15.31787-3.567245-4.282536-9.511631-6.094812-17.83418-5.435803l-57.960063-0.988514-0.8913-33.601282 57.06774 0c16.645099 0 24.967648-6.91755 24.967648-20.753673C611.125625 120.256266 609.490382 115.479473 605.626377 112.514955z"  horiz-adv-x="1024" />

    
    <glyph glyph-name="zhangshangcaifuyemianshoujiban344" unicode="&#58919;" d="M381.342458 794.936774C424.13813 806.289324 468.069056 812 512.034384 812c68.734527 0 135.576962-13.519854 198.73842-40.249948l-8.394006-371.090762L381.342458 794.936774zM69.560167 557.565284c22.361082 38.42666 49.400791 73.585162 80.431093 104.477857 48.575151 48.575151 105.3723 86.279376 168.912176 112.080625L575.471055 505.82518 69.560167 557.565284zM17.063226 169.239288C5.745078 211.862951 0 255.793877 0 300.000017c0 68.80333 13.554256 135.645766 40.249948 198.669616L411.375112 490.344431 17.063226 169.239288zM254.434716-142.439799c-38.151447 22.223476-73.241145 49.263185-104.409054 80.431093-48.609553 48.506348-86.313778 105.303497-112.080625 168.912176l268.298587 256.464414L254.434716-142.439799zM512.034384-211.999966c-68.734527 0-135.576962 13.519854-198.73842 40.181145l8.394006 371.090762 321.036339-394.277485C599.861836-206.289289 555.965311-211.999966 512.034384-211.999966zM448.597714 94.140453l505.910888-51.740104c-22.189074-38.082643-49.15998-73.172342-80.465495-104.409054-48.506348-48.643955-105.3723-86.34818-168.912176-112.149428L448.597714 94.140453zM612.693657 109.5868l394.277485 321.105143c11.318148-42.658065 17.028824-86.623393 17.028824-130.691926 0-69.00974-13.554256-135.783372-40.215547-198.73842L612.693657 109.5868zM769.56525 742.405431c38.117045-22.120271 73.275547-49.125578 104.477857-80.36229 48.643955-48.506348 86.34818-105.3723 112.080625-168.912176l-268.298587-256.533217L769.56525 742.405431z"  horiz-adv-x="1024" />

    
    <glyph glyph-name="bianji" unicode="&#58965;" d="M779.251763-73.750309c19.232017 0 34.806737-16.3422 34.806737-36.524868 0-20.149922-15.573697-36.492122-34.806737-36.492122L163.834392-146.7673c-19.204387 0-34.778084 16.341177-34.778084 36.492122 0 20.181645 15.57472 36.524868 34.778084 36.524868L779.251763-73.750309zM162.211429-24.475046l83.597977 234.30949 136.251174-143.000901L162.211429-24.475046zM409.996838 93.763892 272.593422 237.937502l373.534392 388.885008L783.527137 482.64583 409.996838 93.763892zM809.163003 512.606189 671.76061 656.780823l68.729338 72.088852c22.773679 23.864524 59.646472 23.864524 82.419128 0l54.953589-57.663304c22.773679-23.896246 22.773679-62.647829 0-86.543052L809.163003 512.606189z"  horiz-adv-x="1024" />

    
    <glyph glyph-name="634zhuanchu" unicode="&#58927;" d="M835.549977 302.363837c-8.518001 0-15.422248-6.90527-15.422248-15.422248 0-0.490164 0.028653-0.972141 0.073678-1.451048l0 0 0-334.095147c0-29.735232-24.190959-53.925167-53.925167-53.925167L154.349367-102.529773c-29.734208 0-53.925167 24.190959-53.925167 53.925167L100.4242 551.77528c0 29.734208 24.190959 53.925167 53.925167 53.925167l352.882026 0c0.475837-0.044002 0.956791-0.072655 1.444908-0.072655 8.518001 0 15.422248 6.90527 15.422248 15.422248s-6.90527 15.422248-15.422248 15.422248c-0.48914 0-0.972141-0.028653-1.449002-0.073678L154.349367 636.39861c-46.662763 0-84.624353-37.962613-84.624353-84.624353l0-600.38091c0-46.662763 37.962613-84.624353 84.624353-84.624353l611.92585 0c46.662763 0 84.624353 37.962613 84.624353 84.624353L850.89957 285.490541l0 0c0.045025 0.477884 0.073678 0.960885 0.073678 1.451048C850.973248 295.458567 844.067978 302.363837 835.549977 302.363837zM959.14183 408.677165 959.14183 729.487751 619.069551 729.487751c-0.001023 0-0.002047 0-0.002047 0-8.477069 0-15.349593-6.872524-15.349593-15.349593 0-8.477069 6.872524-15.349593 15.349593-15.349593 0 0 0 0 0 0l0 0 287.24205 0L435.113889 235.104991l0.004093-0.004093c-2.829442-2.784416-4.587482-6.653537-4.587482-10.937097 0-8.477069 6.872524-15.349593 15.349593-15.349593 4.194532 0 7.992021 1.686409 10.762111 4.412496l0.00307-0.004093 471.796346 464.274022 0-272.931113 0.209778 0c0.555655-8.012488 7.214309-14.34573 15.368012-14.34573 8.518001 0 15.422248 6.90527 15.422248 15.422248C959.443705 406.682741 959.337281 407.695814 959.14183 408.677165z"  horiz-adv-x="1024" />

    
    <glyph glyph-name="gongsi" unicode="&#58972;" d="M843.536 556 704 556l0 63.968C704 655.28 674.656 684 638.592 684L385.392 684C349.328 684 320 655.28 320 619.968L320 556l-139.536 0C116.24 556 64 504.288 64 440.736l0-409.472C64-32.304 116.24-84 180.464-84l663.072 0C907.744-84 960-32.304 960 31.264L960 440.736C960 504.288 907.744 556 843.536 556zM352 619.968C352 637.632 366.976 652 385.392 652l253.2 0C657.008 652 672 637.632 672 619.968L672 556 352 556 352 619.968zM180.464 524l663.072 0C890.112 524 928 486.656 928 440.736L928 364 96 364l0 76.736C96 486.656 133.888 524 180.464 524zM606.064 332c-8.928-36.464-47.696-64-94.064-64s-85.136 27.536-94.064 64L606.064 332zM843.536-52 180.464-52C133.888-52 96-14.64 96 31.264L96 332l289.456 0c8.928-54.176 62.192-96 126.544-96s117.616 41.824 126.544 96L928 332l0-300.736C928-14.64 890.112-52 843.536-52z"  horiz-adv-x="1024" />

    
    <glyph glyph-name="jiantou0101" unicode="&#58969;" d="M277.44 194.72 528.213333 445.386667 778.88 194.72Z"  horiz-adv-x="1024" />

    
    <glyph glyph-name="xingweifengxian" unicode="&#58974;" d="M828.268642 550.025427c40.265052-0.809435 47.286979-5.968945 48.468898-38.603203l-0.273223 38.298258L828.268642 550.025427zM948.989097 564.132726c-6.600325 31.982412-35.438117 56.054667-70.025866 56.054667l-38.033221 0 0 0.301875-498.748185-0.26299c-19.732413 0-35.726689-15.691377-35.726689-35.043121 0-19.321044 15.993253-35.007305 35.726689-35.007305l535.297612 0.282433 0.347924-421.081291c0-19.35686 15.95539-35.044144 35.726689-35.044144 19.767206 0 35.722596 15.687284 35.722596 35.044144L948.989097 564.132726zM876.960621 480.12645c0 12.548804 0.082888 22.840194-0.223081 31.295773L876.960621 480.12645zM842.066903 410.075001l0 35.003212c0 38.464033-31.580253 69.635987-70.738088 70.03303l-579.50751-0.302899c-36.039821-3.318582-64.255443-32.806173-64.686255-68.895113l0.26299-427.177126c2.573615-29.386284 23.620977-53.553707 51.729152-61.328787 6.297426 3.083222 11.731182 8.006348 15.35471 14.516622l168.919201 300.80802 103.797018-158.590971c3.14462-6.384407 8.008394-11.402701 13.777795-14.792914 0.105401-0.063445 0.210801-0.12689 0.316202-0.190335 0.067538-0.038886 0.1361-0.076748 0.203638-0.115634 0.408299-0.23843 0.817622-0.476861 1.239224-0.701988 17.316387-9.30083 39.053458-3.063779 48.502667 13.911848l63.300698 97.711416 145.147798-181.225481c-8.691963-2.463098-19.690458-3.626597-33.571606-3.898797l-401.171845 0.122797c-19.732413 0-35.721573-16.182564-35.721573-35.538401 0-19.316951 15.989159-35.003212 35.721573-35.003212l428.776553 0.287549 0 0.049119 37.953404 0c35.850509 0 65.531506 25.810852 70.716598 59.516512l-0.275269 395.800511L842.066903 410.073978zM770.603291 445.059793l0-0.426719-59.032488 0.396019L770.603291 445.059793zM198.626291 444.759965l20.433378 0.010233-20.433378-0.1361L198.626291 444.759965zM709.905884 24.839103l32.742728 0.201591 0.169869-0.211824L709.905884 24.839103zM623.06505 286.266208c-6.575766 11.759835-19.013029 18.36016-31.791054 18.21485-12.779048 0.145309-25.219381-6.455015-31.794124-18.21485l-60.003606-92.620467L393.180336 356.04955c-8.621355 17.392112-29.980825 24.689309-47.745421 16.256242-0.74906-0.354064-1.473561-0.738827-2.185782-1.13587-0.315178-0.171915-0.626263-0.348947-0.936325-0.531096-0.054235-0.032746-0.10847-0.065492-0.163729-0.098237-5.197372-3.092431-9.661034-7.520277-12.783141-13.129019L198.848349 125.01464l-0.195451 282.033421 0.815575-31.980365c0 51.380204 9.010211 67.355037 56.920384 69.722968l449.762517 0.23536c53.691853-1.252527 63.559595-16.292058 63.559595-69.958328l0.915859 36.710087 0.215918-310.022892L623.06505 286.266208zM828.268642 550.025427c-6.945179 0.140193-14.868639 0.151449-23.933085 0.151449L828.268642 550.025427z"  horiz-adv-x="1024" />

    
    <glyph glyph-name="xiaoxi" unicode="&#58947;" d="M611.235119-45.005638l0.277316 40.678468c141.845589 32.552393 242.72209 156.488077 242.928798 303.659975 0.208754 147.999752-104.060007 275.822976-242.928798 303.659975l-0.277316 40.672328c160.195515-24.407899 283.693224-168.483272 283.693224-344.332303C894.929366 123.477634 771.430634-20.599785 611.235119-45.005638zM479.736179-4.633139 247.12026 157.625362l-60.7322 0c-27.936259 0-60.7322 32.748868-60.7322 60.7322L125.655861 380.30907c0 27.977191 32.794917 60.7322 60.7322 60.7322l60.7322 0 232.615918 162.248268c27.936259 0 50.582025-22.683628 50.582025-50.658773l0-506.601036C530.318204 18.05049 507.673461-4.633139 479.736179-4.633139zM246.956531 354.92903c0 13.94971-12.006452 25.260314-26.811646 25.260314l-6.692423 0c-14.806217 0-26.809599-11.310603-26.809599-25.260314L186.642864 243.734532c0-13.951757 12.002358-25.260314 26.809599-25.260314l6.692423 0c14.804171 0 26.811646 11.308557 26.811646 25.260314L246.956531 354.92903zM469.968721 137.210403 469.968721 480.819229c0 20.045545 0 11.631922 0 41.123606l-161.948439-116.069529c0-18.286482-0.086981-17.22736-0.086981-21.218254 0-1.730411 0-2.597151 0-2.851954 0-1.210571 0-2.731204 0-5.051039l0-154.842601 0.086981-29.119201 161.948439-116.073622C469.968721 103.941696 469.968721 117.166905 469.968721 137.210403zM732.976834 299.332804c0-86.747713-41.36613-149.911288-121.464399-161.950486l0 40.48404c53.952796 11.407817 80.976266 61.914118 80.976266 121.466446 0 59.555397-27.02347 110.058628-80.976266 121.464399l0 40.488133C691.610704 449.250232 732.976834 386.084611 732.976834 299.332804z"  horiz-adv-x="1024" />

    
    <glyph glyph-name="erweima" unicode="&#58920;" d="M35.666099 812c135.979044 0 271.95911 0 407.938154 0 41.483887-4.075513 31.485458-76.520236 31.485458-123.586137 0-84.539597 0-140.259711 0-224.084843 0-48.702026 9.244158-108.394567-23.27115-122.227632-21.175726-9.009405-78.006323-2.715988-105.407082-2.715988-75.226033 0-136.374042 0-216.289008 0-49.99827 0-118.269495-11.839708-125.940809 31.236415 0 136.714944 0 273.428866 0 410.142789C9.770821 796.04089 19.605944 807.107955 35.666099 812zM91.791418 719.650279c0-97.330564 0-194.659086 0-291.98965 98.106269 0 196.211517 0 294.317785 0 0 98.688047 0 197.375074 0 296.064142-97.649011 0-195.300063 0-292.949074 0C91.565851 723.496143 91.674041 721.577293 91.791418 719.650279zM583.233194 812c135.979044 0 271.95911 0 407.938154 0 16.640913-6.125007 28.075418-17.417639 31.485458-36.668392 0-133.092605 0-266.187252 0-399.278837-3.73257-16.591922-12.465375-30.764868-28.747015-35.309887-26.608723-7.427375-70.822887-1.358504-102.668639-1.358504-75.033128 0-136.556741 0-209.444432 0-31.585483 0-78.395196-6.600637-104.038371 1.358504-36.197865 11.235474-26.009593 81.338793-26.009593 130.376617 0 65.139827 0 141.175247 0 209.145377C551.748757 736.885219 539.221121 804.08883 583.233194 812zM639.359533 719.650279c0-97.330564 0-194.659086 0-291.98965 98.106269 0 196.211517 0 294.317785 0 0 98.688047 0 197.375074 0 296.064142-97.649011 0-195.300063 0-292.949074 0C639.132946 723.496143 639.241136 721.577293 639.359533 719.650279zM225.945514 634.090018c40.989885 7.674376 73.22451-19.801911 73.921624-57.039834 0.918598-49.106209-49.635934-76.08135-88.979487-55.681329C165.876348 544.707368 168.838316 623.397537 225.945514 634.090018zM773.513629 634.090018c96.550776 17.89531 94.700311-133.801967 0-118.15416C713.246455 525.89346 711.301068 622.558551 773.513629 634.090018zM440.865811-212c-134.610333 0-269.219646 0-403.831 0-16.765435 5.097198-28.090728 15.59065-32.854169 32.593899 0 136.261769 0 272.523537 0 408.785306 3.987736 11.962188 13.192088 25.917733 27.378304 29.877911 26.796525 7.48045 70.567721 1.358504 102.668639 1.358504 73.779752 0 140.613882 0 209.444432 0 30.953691 0 76.002759 6.853762 104.038371-1.358504 37.928912-11.108912 27.378304-80.07419 27.378304-129.018113 0-75.238281 0-139.418684 0-215.935858C475.08869-138.523386 486.554835-207.283509 440.865811-212zM91.791418 168.264878c0-97.331584 0-194.659086 0-291.98965 98.106269 0 196.211517 0 294.317785 0 0 98.688047 0 197.375074 0 296.064142-97.649011 0-195.300063 0-292.949074 0C91.565851 172.111763 91.674041 170.191893 91.791418 168.264878zM1022.656806 223.947228c0-38.026896 0-76.052772 0-114.079668-3.193659-38.480071-0.457258-82.842232-1.368711-123.586137-97.193795 0-194.386569 0-291.580363 0 0 22.182101 0 44.365222 0 66.546303-27.379324 3.167122-60.686668 0.453175-90.348198 1.358504-3.193659-86.013436-0.456237-177.908962-1.368711-266.185211-17.796306 0-35.591591 0-53.387896 0-45.904384 9.127802-32.854169 77.464351-32.854169 131.735122 0 75.701663 0 137.987712 0 210.503881 0 31.651826-6.456723 79.101496 1.368711 104.573199 9.337039 30.388243 49.82986 25.803418 90.348198 25.803418 68.500875 0 129.528445 0 198.493723 0 0-60.207976 0-120.417994 0-180.62597 30.571963 0 61.145967 0 91.71793 0 0.911453 59.755822-1.824948 123.132961 1.368711 180.62597C979.181603 263.207087 1020.064318 262.568151 1022.656806 223.947228zM232.79009 84.064142c43.768134 4.806309 79.948648-36.925599 62.969894-82.843252-23.534481-63.646595-136.060698-39.725282-114.98908 40.742884C186.595837 64.206095 203.419449 80.837822 232.79009 84.064142zM828.270237-212c-32.854169 0-65.708337 0-98.562506 0 0.911453 34.859774-1.822907 73.335763 1.368711 105.930683 32.397932 0 64.794842 0 97.192774 0C828.270237-141.379205 828.270237-176.690113 828.270237-212zM1022.656806-106.069317c0-23.08743 0-46.174861 0-69.262291-3.806058-19.311992-15.188508-31.106791-32.854169-36.668392-23.27115 0-46.54332 0-69.81447 0 0.911453 34.859774-1.822907 73.335763 1.368711 105.930683C955.12352-106.069317 988.889142-106.069317 1022.656806-106.069317z"  horiz-adv-x="1024" />

    
    <glyph glyph-name="qingchushuju" unicode="&#58905;" d="M303.57504 381.435731 132.521223 226.576757l12.326746-21.092387 86.906326 71.634504-75.05644-77.600379 13.82589-15.924691 104.684224 113.418142L174.47473 177.628952l79.009472 55.715953-65.183582-63.677275 9.875928-9.946536 37.529755 31.835056-27.65178-41.787732 9.873882-11.932774 98.757235 133.307122-90.857311-141.267421 7.900947-11.93789 59.256592 65.657372-49.379641-71.628364 88.880283 99.489922-79.003332-109.441575 7.897877-5.966898 69.130474 83.566254-57.279564-91.52246 5.818519-8.595772 114.666576 131.960451-106.659205-139.28323 9.877975-9.951653 31.601742 35.817764-21.729907-47.753607 73.083505 83.571371-63.205531-89.538269 7.90197-11.941983 73.080435 65.662489-63.205531-73.619718 5.925966-9.951653 116.79096 103.609753c8.232498 8.153704 13.990642 13.397125 15.542998 13.788028l-15.542998-13.788028c-33.664727-33.341363-108.890013-115.541503-108.890013-115.541503l11.848862-11.941983 100.732216 91.5286-86.905302-101.475136 9.877975-7.962346 122.458029 131.326001-110.609167-141.272537 9.877975-13.929244 172.285878 168.258145L303.57504 381.435731zM660.700717 37.802346c-45.415352 33.57877-71.41654-72.650647-112.124683-74.931596C657.365762-84.40702 708.926068 2.145242 660.700717 37.802346zM880.846626 652.776625c0 0-131.605364 24.424272-162.571632-20.696368L584.830749 442.736888c0 0-36.508495-83.07609-120.339786-14.546298-60.003606 84.328617-96.483448 34.593889-96.483448 34.593889s-44.514843-56.05262-45.842071-57.394175l276.416494-276.515754c0.936325 0.946558 49.140187 48.185442 49.140187 48.185442 52.508911 47.918359-8.387018 79.635735-8.387018 79.635735-61.997006 64.193021 24.558325 124.631532 24.558325 124.631532l195.489346 122.022101C905.385509 553.668397 880.846626 652.776625 880.846626 652.776625zM803.966655 559.727393c-15.33322 0-27.76332 12.43317-27.76332 27.770484 0 15.343453 12.4301 27.7756 27.76332 27.7756 15.334243 0 27.761274-12.432147 27.761274-27.7756C831.727928 572.160563 819.301921 559.727393 803.966655 559.727393zM818.302151 64.386818c-34.852786 21.757536-50.216705-56.703443-80.272231-60.667731C820.300668-24.368622 855.31002 41.28261 818.302151 64.386818z"  horiz-adv-x="1024" />

    
    <glyph glyph-name="tishi3" unicode="&#58996;" d="M207.59557 633.699128c-12.511965 12.512988-32.807197 12.512988-45.306882 0-12.517081-12.514012-12.517081-32.800034 0-45.318138l45.306882-45.306882c12.517081-12.515035 32.794917-12.515035 45.313022 0 12.511965 12.506848 12.511965 32.789801 0 45.306882L207.59557 633.699128 207.59557 633.699128zM816.39829 633.699128l-45.308929-45.318138c-12.514012-12.517081-12.514012-32.800034 0-45.306882 12.499685-12.515035 32.789801-12.515035 45.308929 0l45.304835 45.306882c12.520151 12.517081 12.520151 32.803103 0 45.318138C849.19423 646.205976 828.912301 646.205976 816.39829 633.699128L816.39829 633.699128zM127.494231 380.110549 63.40968 380.110549c-17.695011 0-32.04381-14.34573-32.04381-32.04074 0-17.700127 14.347776-32.04381 32.04381-32.04381l64.084551 0c17.695011 0 32.038694 14.343683 32.038694 32.04381C159.532925 365.763796 145.189242 380.110549 127.494231 380.110549L127.494231 380.110549zM960.585203 380.110549 896.501676 380.110549c-17.693987 0-32.042787-14.34573-32.042787-32.04074 0-17.700127 14.3488-32.04381 32.042787-32.04381l64.083527 0c17.693987 0 32.047904 14.343683 32.047904 32.04381C992.633107 365.763796 978.279191 380.110549 960.585203 380.110549L960.585203 380.110549zM479.956701 748.592878l0-64.082504c0-17.697057 14.341636-32.038694 32.036647-32.038694s32.047904 14.341636 32.047904 32.038694L544.041252 748.592878c0 17.695011-14.352893 32.042787-32.047904 32.042787S479.956701 766.287889 479.956701 748.592878L479.956701 748.592878zM287.702026 300.00614c0 123.871215 100.414991 224.293369 224.291322 224.293369 123.881448 0 224.300532-100.422154 224.300532-224.293369 0-123.875309-100.420107-224.300532-224.300532-224.300532C388.117017 75.704584 287.702026 176.130831 287.702026 300.00614L287.702026 300.00614zM223.620545 300.00614c0-159.28068 129.104403-288.393269 288.372803-288.393269 159.276586 0 288.382013 129.11259 288.382013 288.393269 0 159.272493-129.105427 288.375873-288.382013 288.375873C352.723925 588.38099 223.620545 459.27761 223.620545 300.00614L223.620545 300.00614zM447.912891-148.593901c0-17.682731 14.347776-32.042787 32.04381-32.042787l64.084551 0c17.696034 0 32.04381 14.359033 32.04381 32.042787 0 17.706267-14.347776 32.04381-32.04381 32.04381l-64.084551 0C462.261691-116.550091 447.912891-130.887634 447.912891-148.593901L447.912891-148.593901zM383.83141-52.469634c0-17.680684 14.343683-32.04074 32.038694-32.04074L608.123756-84.510374c17.695011 0 32.042787 14.359033 32.042787 32.04074 0 17.71036-14.347776 32.048927-32.042787 32.048927L415.870104-20.420707C398.17407-20.419683 383.83141-34.759273 383.83141-52.469634L383.83141-52.469634zM383.83141-52.469634"  horiz-adv-x="1024" />

    
    <glyph glyph-name="shoushishuangji" unicode="&#58903;" d="M358.473883 199.666874c0 0 3.381004 4.481058 8.715499 6.242168 5.336542 1.7519 9.826809 1.673106 9.826809 1.673106s-0.423649 5.439896 2.0241 11.911284c3.258207 8.654101 9.367345 22.193465 12.18553 41.46539 2.076288 14.122649 3.397377 31.296797 4.189416 49.134047 0.950651 21.001313 3.239787 46.150086-0.633427 68.133773-5.335519 29.980825-14.685467 53.270251-25.778106 81.804121-8.311293 21.352307-18.346857 48.28061-24.334221 68.823482-11.918447 40.836057-22.573111 77.962629-20.177552 102.471836 1.601474 16.488533 11.726066 26.524097 21.727861 29.504988 36.480866 10.867512 48.508807-33.296337 69.108984-72.203462 11.057847-20.914332 27.169803-42.606377 35.620265-59.117422 9.931187-19.439748 13.504572-30.316469 13.504572-30.316469s21.042245 23.871687 38.509059 36.614919c9.05012 6.623861 17.730826 16.709567 24.193005 19.848047 8.943696 4.331655 32.697703 4.471848 44.212968-8.17417 21.603017-23.699772 31.060413-70.6552 31.060413-70.6552s19.296485 2.103918 32.079626-13.447267c13.313214-16.164145 16.621563-24.491811 29.265534-57.202816 0 0 19.192108 11.224646 36.691667-6.451946 14.422478-14.564717 22.960944-42.496883 33.614585-73.036433 7.323802-20.979824 20.866237-31.29782 20.866237-63.758116 0-36.931121 3.925403-80.986499 5.791913-122.890888 1.25048-27.723412-1.022283-54.504358 3.5038-77.666894 4.965082-25.664519-0.898463-11.797697 26.657126-63.757093 4.28049-8.090259 6.497994-28.568662-4.383844-44.159756-45.813419-65.693188-220.146932-152.271032-279.660374-63.652715-14.3488 21.385053-22.00927 45.003983-35.936467 59.117422-22.731724 23.065322-55.640228 23.197328-83.460854 48.695049-49.371454 45.2506-102.529141 80.078827-115.928313 107.809401-2.517333 5.238304-6.021134 25.963325-11.70867 47.691185-3.838422 14.70184-12.219299 28.751834-15.108093 41.589211-8.133238 35.935444-16.990976 45.36521-17.483186 62.373583-0.405229 13.126972 10.106172 35.642778 7.218402 54.688553-1.214664 7.985882-6.355755 23.494087-8.116865 35.034934-2.922563 19.083637 3.063779 37.210483 18.698874 39.578414 12.571317 1.90028 24.40483-1.690502 38.949081-15.454994 17.642822-16.693194 33.506115-41.85834 40.72554-60.584843 6.884804-17.871019 1.74269-34.368762 1.74269-34.368762s4.967128-4.455475 8.717546-16.47216c1.426489-4.54348 3.169179-14.149255 4.982478-18.962887 4.490268-11.816117 7.641027-20.645203 9.454326-26.930349 1.673106-5.758144 0-8.979512 0-8.979512L358.473883 199.666874M355.145068 691.019625c-34.669614 0-62.770626-28.111245-62.770626-62.793138 0-34.661428 28.101012-62.771649 62.770626-62.771649 34.668591 0 62.771649 28.110221 62.771649 62.771649C417.916716 662.90838 389.814682 691.019625 355.145068 691.019625L355.145068 691.019625zM434.186262 628.226486c0-43.640939-35.392068-79.019705-79.041194-79.019705-43.649126 0-79.021751 35.378765-79.021751 79.019705 0 43.661406 35.372625 79.040171 79.021751 79.040171C398.794194 707.266657 434.186262 671.887892 434.186262 628.226486L434.186262 628.226486zM355.145068 731.723675c-57.153698 0-103.46035-46.339398-103.46035-103.498212 0-57.136302 46.306652-103.479793 103.46035-103.479793 57.154721 0 103.480816 46.343491 103.480816 103.479793C458.625884 685.385301 412.299789 731.723675 355.145068 731.723675L355.145068 731.723675zM473.485313 628.226486c0-65.351404-52.999075-118.332059-118.340245-118.332059-65.35959 0-118.340245 52.980655-118.340245 118.332059 0 65.37187 52.980655 118.353548 118.340245 118.353548C420.486238 746.580035 473.485313 693.598356 473.485313 628.226486L473.485313 628.226486z"  horiz-adv-x="1024" />

    
    <glyph glyph-name="32pxcha" unicode="&#58931;" d="M829.759 616.617c-175.124 175.221-459.104 175.221-634.229 0-175.127-175.236-175.127-459.308 0-634.527 175.125-175.221 459.105-175.221 634.229 0C1004.949 157.31 1004.949 441.381 829.759 616.617zM807.189 5.067c-162.686-162.529-426.406-162.529-589.09 0-162.621 162.527-162.621 425.998 0 588.526 162.685 162.512 426.405 162.512 589.09 0C969.843 431.065 969.843 167.595 807.189 5.067zM704.745 491.713c-6.222 6.252-16.351 6.252-22.602 0L512.651 321.957 343.145 491.713c-6.221 6.252-16.35 6.252-22.571 0-6.252-6.221-6.252-16.381 0-22.633L490.06 299.33 320.574 129.58c-6.252-6.251-6.252-16.38 0-22.633 6.221-6.252 16.35-6.252 22.571 0l169.507 169.756 169.492-169.756c6.251-6.252 16.38-6.252 22.602 0 6.253 6.253 6.253 16.382 0 22.633L535.244 299.33l169.501 169.75C710.998 475.332 710.998 485.492 704.745 491.713z"  horiz-adv-x="1024" />

    
    <glyph glyph-name="gengduo" unicode="&#58899;" d="M181.765275 417.947296c-65.141626 0-117.937063-52.794413-117.937063-117.936039 0-65.129346 52.795437-117.936039 117.937063-117.936039 65.119113 0 117.937063 52.806693 117.937063 117.936039C299.702338 365.152882 246.884388 417.947296 181.765275 417.947296zM511.988232 417.947296c-65.141626 0-117.937063-52.794413-117.937063-117.936039 0-65.129346 52.795437-117.936039 117.937063-117.936039 65.119113 0 117.937063 52.806693 117.937063 117.936039C629.925295 365.152882 577.107345 417.947296 511.988232 417.947296zM842.211189 417.947296c-65.141626 0-117.937063-52.794413-117.937063-117.936039 0-65.129346 52.795437-117.936039 117.937063-117.936039 65.119113 0 117.937063 52.806693 117.937063 117.936039C960.148251 365.152882 907.330302 417.947296 842.211189 417.947296z"  horiz-adv-x="1024" />

    
    <glyph glyph-name="icon" unicode="&#58939;" d="M225.273714 329.800689l585.440603 0.338714c6.038529-0.607844 12.29707 1.370207 16.956183 5.962805 8.313339 8.180309 8.420786 21.55492 0.23536 29.86519L704.913672 491.320353c-8.185426 8.310269-21.555944 8.41567-29.870306 0.23229-8.313339-8.180309-8.417716-21.556967-0.23536-29.86519l87.653334-89.333602-537.210138-0.310062c-11.66876-0.007163-21.115922-9.464558-21.109782-21.132295C204.150629 339.247851 213.607001 329.799666 225.273714 329.800689L225.273714 329.800689zM802.105242 277.73385l-585.349528-10.359951c-6.046716 0.506537-12.269441-1.577938-16.854875-6.250354-8.170076-8.320502-8.047279-21.69409 0.277316-29.866213l125.122711-123.228571c8.325619-8.171099 21.69409-8.047279 29.869283 0.277316 8.170076 8.320502 8.049326 21.698183-0.276293 29.869283l-89.169873 87.809899 537.13032 9.510607c11.657503 0.204661 20.9481 9.830902 20.743439 21.489429C823.392057 268.654054 813.767862 277.937488 802.105242 277.73385L802.105242 277.73385zM701.843754 775.362506C439.818032 880.099936 142.493365 752.616458 37.746725 490.564129c-104.736406-262.025722 22.778795-559.362669 284.800423-664.098052 262.025722-104.736406 559.358576 22.785958 664.093959 284.807587C1091.392863 373.323946 963.860266 670.630193 701.843754 775.362506L701.843754 775.362506zM335.630118-140.817802C91.648353-43.293657-27.079718 233.543398 70.431123 477.49344 167.955268 721.474182 444.780043 840.17053 688.765902 742.645363c243.913204-97.496515 362.649461-374.300825 265.12327-618.28566C856.380377-119.586246 579.543321-238.314317 335.630118-140.817802L335.630118-140.817802zM335.630118-140.817802"  horiz-adv-x="1024" />

    
    <glyph glyph-name="iconfontzhubaoshipin" unicode="&#58893;" d="M1012.57943 478.748006c-62.384333 88.706355-124.767642 177.45152-187.152998 266.178355-5.558784 8.773837-15.641907 14.997606-25.990963 14.997606L495.866405 759.923968l-18.858259 0L201.107351 759.923968c-9.274573 0-16.29993-3.475149-21.120922-8.724685-0.16169-0.164762-0.323379-0.333619-0.483021-0.504525-0.06144-0.07168-0.12585-0.140186-0.188314-0.211866-1.45623-1.581056-2.828493-3.362611-4.073984-5.388698-54.667264-88.779981-109.310976-177.584538-163.970048-266.345165-7.069286-11.485594-4.575437-25.068954 3.217408-34.304307 0.464589-0.687616 0.94761-1.365094 1.465446-2.026189 154.743501-197.936026 309.473792-395.920282 464.213197-593.852211 6.764339-8.662323 15.009485-11.38432 22.812467-10.174771 6.765363-0.012288 13.679104 2.960384 19.571507 10.174771 161.764762 197.93193 323.560141 395.916186 485.335142 593.851187 0.834048 1.021235 1.581056 2.08343 2.281062 3.165082C1017.662362 454.854912 1020.189082 467.915315 1012.57943 478.748006zM929.086464 493.598259 744.622891 493.598259c21.073818 57.48521 42.142515 114.973594 63.218381 172.458803C848.254259 608.574925 888.668365 551.087667 929.086464 493.598259zM501.32183 685.906176c43.903693-64.093798 87.80329-128.202854 131.705958-192.307917l-267.452033 0C410.822042 557.70025 456.066355 621.804186 501.32183 685.906176zM658.999398 433.652992c-52.296192-142.656-104.593306-285.313126-156.88233-427.988582-50.849178 143.119565-101.886566 285.876941-154.817229 427.988582L658.999353 433.652992zM689.525862 516.931738c-41.791488 61.008486-83.577856 122.029261-125.367296 183.049011l192.464152 0C734.256333 638.967142 711.891149 577.94432 689.525862 516.931738zM313.535488 523.451238c-22.372454 58.971136-45.141914 117.820416-68.416922 176.530534l193.015737 0C396.601651 641.14263 355.068006 582.29847 313.535488 523.451238zM195.429786 663.561267c22.282342-56.532582 44.095078-113.194086 65.566925-169.961984L90.795539 493.599283C125.679411 550.255667 160.557158 606.910003 195.429786 663.561267zM283.531878 433.652992c54.76137-146.58857 107.453645-293.868954 159.926784-441.528013C328.409805 139.29897 213.365043 286.476032 98.334515 433.652992L283.531902 433.652992zM722.650624 433.652992l201.057207 0C802.169856 284.950272 680.644198 136.246426 559.121613-12.45015 613.623091 136.25257 668.137882 284.95232 722.650624 433.652992z"  horiz-adv-x="1024" />

    
    <glyph glyph-name="mima2" unicode="&#58894;" d="M771.576455 394.052073l-7.015787 0 0 0.660032-78.438467 0 0-0.660032L340.84027 394.052073 340.84027 497.73755c0 46.934962 18.886139 90.315982 50.39783 121.169687l2.146896 2.056845c30.80868 29.450752 73.486688 48.336892 119.770827 48.336892 47.585785 0 90.315982-18.886139 121.82051-50.393737 22.431895-21.963221 38.835494-50.278103 46.431495-81.700767l80.012312 0c-8.478092 53.097312-33.751708 101.063767-70.39221 137.704269-45.482891 44.877093-108.596324 73.580832-177.872107 73.580832-67.975161 0-129.584334-27.300786-175.120436-72.177879l-2.101871-2.056845c-46.230927-44.877093-74.234725-107.893312-74.234725-176.519296l0-103.686501-7.011694 0c-25.943882 0-50.438763-11.219529-67.223031-27.954679l0-0.748037c-17.532305-16.829294-28.003797-41.325198-28.003797-67.223031l0-350.232686c0-26.552749 10.471492-50.393737 28.003797-67.222007 16.784268-17.48421 41.280172-28.703739 67.223031-28.703739L771.576455-148.03313c25.242917 0 47.584762 9.8176 65.162092 25.898857l2.759857 2.804882c16.784268 16.82827 28.003797 41.324174 28.003797 67.222007L867.502202 298.125303c0 26.552749-11.219529 50.393737-28.003797 67.971068C822.015218 382.832544 798.218232 394.052073 771.576455 394.052073zM788.404726-52.107383c0-4.206812-1.406023-9.06854-4.910846-11.874445l-1.446955-1.401929c-2.759857-2.804882-6.26775-4.206812-10.470469-4.206812L254.686075-69.59057c-4.207835 0-8.366551 1.401929-11.171434 4.861728-2.804882 2.803859-4.958942 7.012717-4.958942 11.966543L238.555699 297.377266c0 4.206812 2.15406 8.414647 4.958942 11.967566 2.804882 2.804882 6.963599 4.861728 11.171434 4.861728L771.576455 314.20656c4.202719 0 9.113565-2.056845 11.917424-4.861728 3.504824-2.804882 4.910846-7.012717 4.910846-11.967566L788.404726-52.107383zM581.077773 225.292508c-17.532305 17.48421-41.324174 27.954679-67.921949 27.954679-25.945929 0-49.739844-10.470469-67.272149-27.954679-16.783245-16.82827-27.299763-41.325198-27.299763-67.222007 0-25.898857 10.516518-50.487881 27.299763-67.971068 12.622482-11.967566 26.64587-20.289092 44.175105-25.243941l0-48.336892c0-13.276375 10.471492-23.747867 23.747867-23.747867 13.373589 0 23.845081 11.126408 23.845081 23.747867l0 48.336892c16.82827 4.206812 31.504528 13.276375 43.427068 25.243941 16.784268 17.483186 28.003797 41.325198 28.003797 67.971068C609.081571 183.96731 598.610078 208.464237 581.077773 225.292508zM547.464211 123.756997c-8.414647-7.760754-20.283975-14.024411-32.909527-14.024411l-2.805906 0c-12.617365 0-23.836895 6.263657-32.909527 14.024411-8.414647 8.414647-14.024411 20.942985-14.024411 33.564443 0 13.277398 5.609765 25.898857 14.024411 33.658587 9.072633 8.41567 20.992103 14.024411 34.316573 14.024411 13.276375 0 25.894763-5.608741 34.308387-14.024411 8.414647-8.414647 14.024411-20.38119 14.024411-33.658587C560.741609 144.699981 555.130821 132.82656 547.464211 123.756997z"  horiz-adv-x="1024" />

    
    <glyph glyph-name="kehuyuyue" unicode="&#59078;" d="M118.140189 600.933887c29.974685 40.785915 66.119907 76.768431 107.180068 106.525152-11.95631 30.90487-41.933041 52.79953-77.095889 52.79953-45.591361 0-82.556251-36.96489-82.556251-82.502016C65.668117 642.81167 87.399047 613.000714 118.140189 600.933887zM905.976468 600.933887c30.68486 12.066827 52.525284 41.877783 52.525284 76.822666 0 45.537126-37.018102 82.502016-82.610486 82.502016-35.109636 0-65.139579-21.894659-77.042677-52.79953C839.801303 677.702318 875.999736 641.719802 905.976468 600.933887zM713.156928 323.952528l-178.077791 0.432859 0 184.706769c0 23.909549-19.385513 43.242873-43.349297 43.242873-23.910573 0-43.297109-19.333324-43.297109-43.242873l0-222.997863c0-0.819668 0.027629-1.633197 0.072655-2.441609-0.042979-0.76134-0.068562-1.526773-0.071631-2.297322-0.107447-23.910573 19.22383-43.351344 43.134403-43.351344l221.319641-0.591471c8.346085-0.054235 16.154935 2.314719 22.833031 6.408967 12.277628 7.647167 20.572548 21.217231 20.572548 36.726459C756.397754 304.458545 737.066477 323.899316 713.156928 323.952528zM959.429891 312.476149c0 60.334133-11.847839 118.811989-35.162848 173.960007-22.549575 53.181223-54.763255 101.010555-95.824439 141.962246-41.060161 41.060161-88.889493 73.27384-142.18021 95.76918-55.146994 23.315008-113.787556 35.162848-174.121689 35.162848-60.334133 0-118.975718-11.848862-174.122713-35.162848-53.289694-22.49534-101.121072-54.709019-142.181233-95.76918-41.059138-40.951691-73.272817-88.781022-95.824439-141.962246-23.313985-55.148018-35.162848-113.62485-35.162848-173.960007 0-60.278875 11.848862-118.810966 35.162848-173.903725 21.394263-50.504254 51.500954-96.084359 89.590458-135.639237l-72.813353-107.640556c-9.108448-13.407358-5.54325-31.647791 7.833409-40.736796 13.407358-9.109472 31.658024-5.594415 40.707121 7.853875l68.074422 100.58179c31.822776-25.403576 66.838268-46.257533 104.614639-62.204737 55.148018-23.25975 113.788579-35.109636 174.122713-35.109636 60.334133 0 118.975718 11.848862 174.121689 35.109636 37.755905 15.937994 72.755024 36.778648 104.564497 62.163805l68.045769-100.540857c9.049097-13.44829 27.299763-16.963347 40.707121-7.853875 13.375635 9.089006 16.940834 27.329439 7.832386 40.736796l-72.78163 107.593484c38.113039 39.567157 68.235081 85.162612 89.636506 135.687332C947.582051 193.665183 959.429891 252.197274 959.429891 312.476149zM869.721753 161.560998c-19.549242-46.084595-47.50392-87.580684-83.157955-123.180484-35.655058-35.598776-77.151148-63.555501-123.344213-83.102696-47.830355-20.202111-98.717326-30.466895-151.079904-30.466895-52.416813 0-103.251595 10.264784-151.080927 30.466895-46.193065 19.547195-87.689155 47.50392-123.343189 83.102696-35.655058 35.599799-63.61076 77.095889-83.157955 123.180484-20.255323 47.829332-30.521131 98.608855-30.521131 150.916175 0 52.362578 10.265808 103.141078 30.521131 150.917198 19.548218 46.194088 47.502897 87.580684 83.157955 123.234719 35.654035 35.598776 77.150124 63.61076 123.343189 83.101673 47.829332 20.203134 98.664114 30.41266 151.080927 30.41266 52.362578 0 103.248525-10.209526 151.079904-30.41266 46.194088-19.490913 87.689155-47.502897 123.344213-83.101673 35.654035-35.654035 63.608713-77.041654 83.157955-123.234719 20.25737-47.77612 30.521131-98.55462 30.521131-150.917198C900.242883 260.169853 889.979122 209.390329 869.721753 161.560998z"  horiz-adv-x="1024" />

    
    <glyph glyph-name="tishi1" unicode="&#58963;" d="M512.002558 748.104761c-247.490697 0-448.107831-200.617134-448.107831-448.096575 0-247.492744 200.617134-448.112947 448.107831-448.112947 247.478418 0 448.101691 200.620204 448.101691 448.112947C960.104249 547.487627 759.480976 748.104761 512.002558 748.104761L512.002558 748.104761zM512.002558-88.356982c-214.145242 0-388.360052 174.209694-388.360052 388.366192 0 214.135008 174.219927 388.351865 388.360052 388.351865 214.139102 0 388.352889-174.216857 388.352889-388.351865C900.355447 85.852712 726.14166-88.356982 512.002558-88.356982L512.002558-88.356982zM512.002558-88.356982M604.536045 182.072147c-10.858302 0-53.506635-62.961984-76.752058-62.961984-6.207375 0-9.287527 5.184069-9.287527 10.367115 0 11.839653 8.518001 30.375821 13.164834 41.48688l55.812143 144.404877c27.915793 71.847351-7.754614 91.087555-41.085744 91.087555-44.948725 0-85.264942-21.474081-116.27112-49.608861-10.080589-9.639544-35.106566-47.019897-35.106566-61.182454 0-4.719488 4.723581-10.247388 10.255575-10.247388 14.168698 0 41.899272 72.163553 70.578452 72.163553 6.217608 0 13.193487-6.678096 7.754614-19.98517l-54.240345-130.35079c-5.445012-12.596899-31.798217-55.791677-31.798217-91.336218 0-28.135804 19.378349-58.262962 47.293119-58.262962 78.293157 0 168.970366 91.833545 168.970366 113.315812C613.817432 177.626905 608.408235 182.072147 604.536045 182.072147L604.536045 182.072147zM589.010443 542.7313c-34.098609 0-63.556525-26.657126-63.556525-59.239196 0-30.369681 20.929682-50.377364 52.727898-50.377364 34.872229 0 64.326051 25.183566 64.326051 59.239196C642.507868 522.735897 620.03504 542.7313 589.010443 542.7313L589.010443 542.7313zM589.010443 542.7313"  horiz-adv-x="1024" />

    
    <glyph glyph-name="jia" unicode="&#58923;" d="M921.013953 337.378306 549.377794 337.378306 549.377794 709.013441c0 20.635993-16.746406 37.381375-37.382399 37.381375-20.62883 0-37.373189-16.745383-37.373189-37.381375l0-371.635135L102.986047 337.378306c-20.635993 0-37.381375-16.746406-37.381375-37.382399 0-20.62883 16.745383-37.373189 37.381375-37.373189l371.635135 0 0-371.636159c0-20.669762 16.744359-37.380352 37.373189-37.380352 20.635993 0 37.382399 16.71059 37.382399 37.380352L549.376771 262.622718l371.636159 0c20.669762 0 37.380352 16.744359 37.380352 37.373189C958.394305 320.6319 941.683714 337.378306 921.013953 337.378306z"  horiz-adv-x="1024" />

    
    <glyph glyph-name="iconfontclose" unicode="&#58911;" d="M557.312 286.752l265.28 263.904c12.544 12.48 12.608 32.704 0.128 45.248-12.512 12.576-32.704 12.608-45.248 0.128l-265.344-263.936-263.040 263.84c-12.448 12.48-32.704 12.544-45.248 0.064-12.512-12.48-12.544-32.736-0.064-45.28l262.976-263.776-265.152-263.744c-12.544-12.48-12.608-32.704-0.128-45.248 6.24-6.272 14.464-9.44 22.688-9.44 8.16 0 16.32 3.104 22.56 9.312l265.216 263.808 265.44-266.24c6.24-6.272 14.432-9.408 22.656-9.408 8.192 0 16.352 3.136 22.592 9.344 12.512 12.48 12.544 32.704 0.064 45.248l-265.376 266.176z"  horiz-adv-x="1024" />

    
    <glyph glyph-name="fuxuangougou" unicode="&#58895;" d="M1015.476371 542.026242c0 0-163.133428-56.354496-348.136955-265.37195C492.739842 79.38951 452.98542 1.038024 382.7201-104.9151c0 0-103.174847 195.677635-371.784538 339.764264L149.154553 367.053162c0 0 130.389676-90.399893 217.554898-247.830435 0 0 222.35932 345.100806 648.765897 508.736677L1015.475348 542.026242z"  horiz-adv-x="1024" />

    
    <glyph glyph-name="zhaiquanzhuanrangguize" unicode="&#58941;" d="M715.530998 679.473661c-8.939603 8.93551-23.432689 8.93551-32.369222-0.005117-4.464685-4.469801-6.702656-10.328229-6.702656-16.181541 0-5.858428 2.232854-11.711739 6.702656-16.186657l191.180204-191.175087L88.037591 455.925259c-12.643971 0-22.890336-10.246365-22.890336-22.88522 0-12.643971 10.246365-22.890336 22.890336-22.890336l841.559854 0c0.713244 0 1.422396 0.038886 2.12029 0.102331 0.033769 0.005117 0.067538 0.005117 0.102331 0.010233 0.698918 0.067538 1.387603 0.169869 2.068102 0.300852 0.044002 0.005117 0.082888 0.00921 0.12075 0.019443 0.679475 0.1361 1.349741 0.295735 2.004657 0.490164 0.054235 0.014326 0.106424 0.028653 0.155543 0.042979 0.650823 0.194428 1.286296 0.417509 1.907443 0.670266 0.071631 0.028653 0.145309 0.053212 0.212848 0.082888 0.611937 0.252757 1.209548 0.529049 1.790786 0.829901 0.082888 0.044002 0.169869 0.086981 0.257873 0.130983 0.577145 0.311085 1.14508 0.645706 1.693572 1.004887 0.077771 0.048095 0.159636 0.102331 0.242524 0.155543 0.573051 0.378623 1.121544 0.786922 1.659803 1.217734 0.049119 0.044002 0.102331 0.082888 0.150426 0.121773 0.586354 0.480954 1.150196 0.985444 1.684362 1.523703 0.005117 0 0.005117 0.005117 0.011256 0.005117 0.00307 0.005117 0.00307 0.005117 0.008186 0.00921 0.533143 0.534166 1.039679 1.096984 1.518586 1.684362 0.038886 0.048095 0.077771 0.097214 0.116657 0.146333 0.431835 0.538259 0.844228 1.096984 1.227967 1.669012 0.048095 0.077771 0.097214 0.155543 0.149403 0.233314 0.360204 0.553609 0.694825 1.121544 1.004887 1.708921 0.044002 0.077771 0.081864 0.159636 0.125867 0.242524 0.300852 0.587378 0.582261 1.183965 0.835018 1.801019 0.028653 0.067538 0.053212 0.1361 0.081864 0.203638 0.24764 0.626263 0.475837 1.261737 0.669242 1.917676 0.01535 0.048095 0.024559 0.097214 0.038886 0.145309 0.193405 0.661056 0.360204 1.330298 0.49528 2.01489 0.004093 0.038886 0.00921 0.072655 0.019443 0.11154 0.125867 0.679475 0.233314 1.373277 0.295735 2.072195 0.005117 0.033769 0.005117 0.067538 0.010233 0.102331 0.063445 0.698918 0.102331 1.407046 0.102331 2.121314 0 0.718361-0.038886 1.427512-0.102331 2.12643-0.005117 0.033769-0.005117 0.063445-0.010233 0.097214-0.065492 0.698918-0.169869 1.387603-0.295735 2.072195-0.010233 0.038886-0.01535 0.077771-0.023536 0.116657-0.130983 0.684592-0.296759 1.353834-0.490164 2.009773-0.014326 0.053212-0.023536 0.102331-0.038886 0.154519-0.198521 0.645706-0.421602 1.286296-0.669242 1.912559-0.028653 0.067538-0.053212 0.1361-0.081864 0.203638-0.252757 0.611937-0.534166 1.213641-0.835018 1.795902-0.044002 0.082888-0.081864 0.164752-0.125867 0.24764-0.311085 0.587378-0.650823 1.155313-1.00898 1.707898-0.049119 0.072655-0.098237 0.150426-0.146333 0.228197-0.38374 0.577145-0.796132 1.13587-1.233084 1.674129-0.038886 0.048095-0.072655 0.097214-0.106424 0.141216-0.485047 0.592494-0.994654 1.160429-1.538029 1.698688L715.530998 679.473661 715.530998 679.473661zM73.699024 175.090129c-0.053212-0.037862-0.102331-0.073678-0.155543-0.119727-0.582261-0.481977-1.146103-0.983397-1.679245-1.524726-0.00307 0-0.00307-0.004093-0.008186-0.004093-0.00614-0.00614-0.00614-0.00614-0.011256-0.010233-0.533143-0.533143-1.038656-1.096984-1.518586-1.677199-0.044002-0.054235-0.082888-0.107447-0.125867-0.159636-0.427742-0.537236-0.836041-1.087774-1.214664-1.654686-0.058328-0.085958-0.106424-0.167822-0.160659-0.249687-0.354064-0.549515-0.688685-1.113357-0.99977-1.690502-0.042979-0.085958-0.086981-0.173962-0.130983-0.26606-0.300852-0.577145-0.577145-1.169639-0.829901-1.774413-0.027629-0.079818-0.058328-0.151449-0.086981-0.226151-0.246617-0.621147-0.470721-1.251503-0.660032-1.895163-0.019443-0.058328-0.033769-0.11154-0.048095-0.165776-0.189312-0.657986-0.355087-1.321088-0.490164-2.000564-0.004093-0.044002-0.014326-0.088004-0.023536-0.132006-0.12689-0.673335-0.228197-1.363044-0.296759-2.054799-0.004093-0.041956-0.004093-0.079818-0.00921-0.119727-0.063445-0.693802-0.097214-1.396813-0.097214-2.109034 0-0.715291 0.033769-1.419326 0.097214-2.114151 0.005117-0.037862 0.005117-0.075725 0.00921-0.113587 0.067538-0.695848 0.169869-1.381463 0.296759-2.060939 0.00921-0.041956 0.014326-0.085958 0.023536-0.12996 0.1361-0.675382 0.300852-1.339508 0.490164-1.994424 0.014326-0.052189 0.028653-0.109494 0.044002-0.163729 0.193405-0.647753 0.417509-1.277086 0.664126-1.898233 0.028653-0.073678 0.059352-0.151449 0.086981-0.222057 0.252757-0.60989 0.529049-1.201361 0.824785-1.782599 0.048095-0.088004 0.086981-0.176009 0.1361-0.261966 0.311085-0.577145 0.645706-1.140986 0.99977-1.690502 0.053212-0.081864 0.102331-0.163729 0.155543-0.243547 0.38374-0.574075 0.791016-1.12973 1.223874-1.660826 0.037862-0.048095 0.076748-0.102331 0.115634-0.151449 0.485047-0.587378 0.994654-1.155313 1.534959-1.694595l230.241848-230.243895c8.940626-8.937556 23.432689-8.937556 32.369222 0 8.94165 8.937556 8.94165 23.426549 0 32.366152L143.291009 134.371752l786.306436 0c12.638855 0 22.884197 10.251481 22.884197 22.88829s-10.246365 22.886243-22.884197 22.886243L88.037591 180.146285l-0.005117 0c-0.708128 0-1.412163-0.037862-2.106987-0.106424-0.037862 0-0.077771-0.002047-0.116657-0.002047-0.692778-0.069585-1.378393-0.171915-2.052752-0.297782-0.048095-0.010233-0.091074-0.01842-0.1361-0.023536-0.678452-0.1361-1.344624-0.299829-1.994424-0.491187-0.058328-0.01228-0.11154-0.027629-0.169869-0.048095-0.644683-0.193405-1.277086-0.417509-1.898233-0.665149-0.072655-0.025583-0.144286-0.052189-0.217964-0.083911-0.611937-0.249687-1.203408-0.528026-1.784646-0.825808-0.083911-0.046049-0.176009-0.090051-0.25685-0.138146-0.583285-0.305969-1.14508-0.63752-1.694595-0.99363-0.082888-0.052189-0.165776-0.106424-0.242524-0.159636C74.786799 175.93231 74.23319 175.524011 73.699024 175.090129L73.699024 175.090129zM73.699024 175.090129"  horiz-adv-x="1024" />

    
    <glyph glyph-name="reload" unicode="&#58937;" d="M785.749333 154.677333C736 62.090667 638.293333-0.885333 525.824-0.885333c-162.816 0-294.826667 132.010667-294.826667 294.826667s132.010667 294.826667 294.826667 294.826667c80.128 0 152.832-32 205.994667-83.882667l-126.293333 0 0-64 228.096 0 0 0 0 0L833.621333 668.896l-64 0 0-106.325333c-64.426667 58.453333-149.930667 94.122667-243.797333 94.122667-200.362667 0-362.837333-162.474667-362.837333-362.837333 0-200.362667 162.474667-362.837333 362.837333-362.837333 151.04 0 280.490667 92.245333 335.104 223.573333L785.749333 154.592z"  horiz-adv-x="1024" />

    
    <glyph glyph-name="iconfontjiarujine" unicode="&#58930;" d="M853.878045 361.667059 591.900554 361.667059c-9.116748 0-16.513355 7.224593-16.513355 16.341341 0 9.116748 7.396607 16.341341 16.513355 16.341341l261.805476 0c8.944734 0 16.341341-7.224593 16.341341-16.341341C870.219385 368.891651 862.822778 361.667059 853.878045 361.667059L853.878045 361.667059zM896.881572 235.75273 548.725013 235.75273c-8.944734 0-16.341341 7.396607-16.341341 16.513355 0 8.944734 7.396607 16.341341 16.341341 16.341341l348.15656 0c9.116748 0 16.341341-7.396607 16.341341-16.341341C913.222913 243.149336 905.99832 235.75273 896.881572 235.75273L896.881572 235.75273zM722.803292-9.88342c-9.116748 0-16.341341 7.396607-16.341341 16.513355L706.461952 378.008399c0 9.116748 7.224593 16.341341 16.341341 16.341341 9.116748 0 16.341341-7.224593 16.341341-16.341341l0-371.378465C739.144633-2.486813 731.92004-9.88342 722.803292-9.88342L722.803292-9.88342zM722.459264 361.667059c-4.300353 0-8.428691 1.548127-11.69696 4.816395l-143.287754 143.459768c-6.536536 6.364522-6.536536 16.685369 0 23.221905 6.364522 6.364522 16.857383 6.364522 23.221905 0l143.459768-143.459768c6.364522-6.536536 6.364522-16.857383 0-23.221905C730.715942 363.215186 726.587603 361.667059 722.459264 361.667059L722.459264 361.667059zM722.459264 361.667059c-4.300353 0-8.428691 1.548127-11.69696 4.816395-6.364522 6.364522-6.364522 16.685369 0 23.221905l144.319839 144.319839c6.364522 6.364522 16.857383 6.364522 23.221905 0 6.536536-6.364522 6.536536-16.857383 0-23.221905L733.98421 366.483454C730.715942 363.215186 726.587603 361.667059 722.459264 361.667059L722.459264 361.667059zM1214.247606 2.501596 855.082143 2.501596c-8.944734 0-16.341341 7.224593-16.341341 16.341341 0 9.116748 7.224593 16.341341 16.341341 16.341341l359.165463 0c8.944734 0 16.341341-7.224593 16.341341-16.341341C1230.588947 9.898203 1223.19234 2.501596 1214.247606 2.501596L1214.247606 2.501596zM977.900218-120.316479c-4.300353 0-8.428691 1.720141-11.69696 4.816395l-122.818075 122.818075c-6.364522 6.536536-6.364522 16.685369 0 23.221905 6.536536 6.536536 16.857383 6.536536 23.221905 0l122.990089-122.990089c6.364522-6.364522 6.364522-16.685369 0-23.221905C986.32891-118.596338 982.200571-120.316479 977.900218-120.316479L977.900218-120.316479zM855.082143 2.501596c-4.128339 0-8.428691 1.720141-11.69696 4.816395-6.364522 6.536536-6.364522 16.685369 0 23.221905l122.990089 122.990089c6.536536 6.536536 16.857383 6.536536 23.221905 0 6.364522-6.536536 6.364522-16.685369 0-23.221905l-122.990089-122.990089C863.510835 4.221737 859.210482 2.501596 855.082143 2.501596L855.082143 2.501596zM722.803292-210.967915C441.732236-210.967915 213.297497 17.638838 213.297497 298.53788S441.732236 808.043675 722.803292 808.043675c61.92508 0 122.646061-1.032085 180.098774-22.705863 196.956157-74.48211 329.407022-309.281371 329.407022-519.998656 0-9.116748-7.396607-16.341341-16.341341-16.341341-9.116748 0-16.341341 7.224593-16.341341 16.341341 0 196.956157-123.85016 419.542416-308.249286 489.036116-53.840417 20.297665-110.605073 20.641693-168.573828 20.641693-262.837561 0-476.6511-213.985554-476.6511-476.6511 0-262.837561 213.985554-476.6511 476.6511-476.6511 9.116748 0 16.341341-7.224593 16.341341-16.341341C739.144633-203.571309 731.92004-210.967915 722.803292-210.967915L722.803292-210.967915zM722.803292-210.967915"  horiz-adv-x="1449" />

    
    <glyph glyph-name="guanyuwomen" unicode="&#58906;" d="M920.265696 357.21988l-88.312242-88.343273c-9.060848-9.091879-20.976485-13.653333-32.892121-13.653333-11.915636 0-23.831273 4.530424-32.923152 13.653333-8.874667 8.874667-13.436121 20.417939-13.653333 32.054303-0.217212 12.163879 4.344242 24.451879 13.653333 33.76097l88.312242 88.312242C883.743029 452.358789 899.878787 491.301819 899.878787 532.758304 899.878787 618.277819 830.277817 687.878788 744.727272 687.878788c-41.425455 0-80.399515-16.135758-109.692121-45.459394l-186.181817-186.181817C419.529697 426.944971 403.393939 388.032971 403.393939 346.576486c0-52.999758 26.779152-101.841455 71.68-130.637576 10.829576-6.888727 17.780364-17.563152 20.324848-29.199515 2.575515-11.636364 0.651636-24.234667-6.268121-35.095273-6.919758-10.767515-17.532121-17.749333-29.106424-20.293818-11.698424-2.606545-24.358788-0.713697-35.219394 6.237091-71.71103 46.017939-114.532848 124.121212-114.532848 208.98909 0 66.311758 25.817212 128.651636 72.704 175.507393l186.181817 186.150787C616.075636 755.152485 678.415515 780.969697 744.727272 780.969697c136.874667 0 248.242423-111.367758 248.242423-248.211393C992.969696 466.446546 967.152484 404.075637 920.265696 357.21988zM248.242425-118.909088c41.425455 0 80.399515 16.135758 109.692121 45.459394l186.181817 186.181817C573.44 142.024729 589.575758 180.96776 589.575758 222.424244c0 52.999758-26.779152 101.841455-71.68 130.606545-10.829576 6.950788-17.780364 17.594182-20.324848 29.230545-2.575515 11.636364-0.651636 24.234667 6.268121 35.064242 6.919758 10.767515 17.532121 17.749333 29.106424 20.324848 11.698424 2.575515 24.358788 0.713697 35.219394-6.268121 71.71103-45.986909 114.501818-124.121212 114.501818-208.98909 0-66.311758-25.817212-128.651636-72.704-175.507393l-186.181817-186.181817C376.894061-186.182785 314.554183-211.999997 248.242425-211.999997c-136.874667 0-248.242423 111.367758-248.242423 248.242423 0 66.311758 25.817212 128.682667 72.704 175.507393l88.312242 88.343273c9.060848 9.091879 20.976485 13.622303 32.892121 13.622303 11.915636 0 23.831273-4.530424 32.892121-13.622303 8.874667-8.874667 13.436121-20.44897 13.653333-32.054303 0.217212-12.194909-4.344242-24.451879-13.653333-33.76097l-88.312242-88.343273C109.226668 116.641941 93.09091 77.698911 93.09091 36.242426 93.09091-49.308118 162.69188-118.909088 248.242425-118.909088z"  horiz-adv-x="1024" />

    
    <glyph glyph-name="shangjiantou" unicode="&#58971;" d="M641.871634 525.559716l382.600444-459.031864L259.343028 66.527852 641.871634 525.559716z"  horiz-adv-x="1284" />

    
    <glyph glyph-name="delete" unicode="&#58950;" d="M608 44c-17.696 0-32 14.304-32 32L576 428c0 17.696 14.304 32 32 32s32-14.304 32-32l0-352C640 58.304 625.696 44 608 44zM416 44c-17.696 0-32 14.304-32 32L384 428c0 17.696 14.304 32 32 32s32-14.304 32-32l0-352C448 58.304 433.696 44 416 44zM928 588l-160 0L768 652c0 52.928-42.72 96-95.264 96L352 748C299.072 748 256 704.928 256 652l0-64L96 588C78.304 588 64 573.696 64 556s14.304-32 32-32l832 0c17.696 0 32 14.304 32 32S945.696 588 928 588zM320 652c0 17.632 14.368 32 32 32l320.736 0C690.272 684 704 669.952 704 652l0-64L320 588 320 652zM736.128-148 288.064-148c-52.928 0-96 43.072-96 96L192.064 428.48c0 17.664 14.336 32 32 32s32-14.336 32-32L256.064-52c0-17.664 14.368-32 32-32l448.064 0c17.664 0 32 14.336 32 32L768.128 427.168c0 17.664 14.304 32 32 32s32-14.336 32-32L832.128-52C832.128-104.928 789.056-148 736.128-148z"  horiz-adv-x="1024" />

    
    <glyph glyph-name="it" unicode="&#58976;" d="M960 711.428571l-822.857143 0c-30.299429 0-54.857143-24.557714-54.857143-54.857143l0-530.285714c0-30.299429 24.557714-54.857143 54.857143-54.857143l208.457143 0 32.914286 54.857143L155.428571 126.285714c-10.093714 0-18.285714 8.192-18.285714 18.285714l0 493.714286c0 10.093714 8.192 18.285714 18.285714 18.285714l786.285714 0c10.093714 0 18.285714-8.192 18.285714-18.285714l0-493.714286c0-10.093714-8.192-18.285714-18.285714-18.285714l-420.571429 0c-68.187429-1.517714-73.142857-36.571429-73.142857-36.571429l-1.92 1.92L338.285714-93.142857l1.682286 0C338.944-96.013714 338.285714-99.067429 338.285714-102.285714c0-15.158857 12.288-27.428571 27.428571-27.428571l365.714286 0c15.140571 0 27.428571 12.269714 27.428571 27.428571 0 3.218286-0.658286 6.272-1.682286 9.142857L758.857143-93.142857l-64 109.714286-70.089143 0 50.797714-91.428571L421.577143-74.857143l81.28 146.285714 457.142857 0c30.299429 0 54.857143 24.557714 54.857143 54.857143l0 530.285714C1014.857143 686.870857 990.299429 711.428571 960 711.428571zM374.857143 510.285714c-10.093714 0-18.285714-8.192-18.285714-18.285714l0-201.142857c0-10.093714 8.192-18.285714 18.285714-18.285714s18.285714 8.192 18.285714 18.285714l0 201.142857C393.142857 502.093714 384.950857 510.285714 374.857143 510.285714zM612.571429 272.571429c10.093714 0 18.285714 8.192 18.285714 18.285714l0 182.857143 107.099429 0c11.538286 0 20.900571 8.192 20.900571 18.285714 0 10.093714-9.362286 18.285714-20.900571 18.285714L487.186286 510.285714c-11.538286 0-20.900571-8.192-20.900571-18.285714 0-10.093714 9.362286-18.285714 20.900571-18.285714L594.285714 473.714286l0-182.857143C594.285714 280.763429 602.477714 272.571429 612.571429 272.571429z"  horiz-adv-x="1098" />

    
    <glyph glyph-name="yonghupinglunguanli" unicode="&#58887;" d="M512-84c-32.704 0-64.64 2.944-95.68 8.128L192-212l0 226.56C75.072 96.672 0 222.624 0 364c0 247.424 229.248 448 512 448s512-200.576 512-448S794.752-84 512-84zM512 748C264.576 748 64 576.032 64 364c0-130.112 75.712-244.928 191.168-314.368L253.184-98.72l150.656 90.496C438.592-15.648 474.688-20 512-20c247.424 0 448 172.032 448 384C960 576.032 759.424 748 512 748zM736 396l-448 0C270.336 396 256 410.336 256 428s14.336 32 32 32l448 0C753.6 460 768 445.664 768 428S753.6 396 736 396zM352 268l320 0C689.6 268 704 253.6 704 236s-14.4-32-32-32l-320 0C334.336 204 320 218.4 320 236S334.336 268 352 268z"  horiz-adv-x="1024" />

    
    <glyph glyph-name="jiantou2" unicode="&#58955;" d="M510.141164 731.654091c-219.418338 0-396.508639-177.953971-396.508639-396.509662 0-218.553645 177.953971-396.507616 396.508639-396.507616s396.508639 177.952948 396.508639 396.507616C906.649803 553.700119 729.559503 731.654091 510.141164 731.654091zM650.086473 313.549597 453.127659 115.727113c-6.046716-6.046716-13.821797-8.637728-21.595854-8.637728s-15.549138 2.591011-21.595854 8.637728c-12.093433 12.093433-12.093433 31.098275 0 43.192731l176.22663 176.225607-175.36296 173.634596c-12.093433 12.094456-12.093433 31.098275 0 42.329061 12.093433 12.093433 31.098275 12.093433 42.329061 0L650.086473 355.878658c6.045693-6.04774 8.636704-12.95915 8.636704-21.596877C658.724201 327.370371 656.132166 319.59529 650.086473 313.549597z"  horiz-adv-x="1024" />

    
    <glyph glyph-name="lock-fill" unicode="&#58907;" d="M823.371 353.501h-68.717v159.816c0 133.843-108.783 242.683-242.621 242.683-133.843 0-242.746-108.84-242.746-242.683v-159.816h-68.659c-33.106 0-59.937-26.828-59.937-59.937v-437.563c0-33.168 26.832-60 59.937-60h622.805c33.111 0 59.88 26.832 59.88 60v437.563c-0.005 33.111-26.827 59.937-59.943 59.937zM545.691 63.379v-95.549c0-4.268-3.532-7.868-7.867-7.868h-51.523c-4.388 0-7.925 3.6-7.925 7.868v95.549c-24.206 12.379-40.972 37.195-40.972 66.283 0 41.155 33.413 74.631 74.573 74.631 41.217 0 74.635-33.475 74.635-74.631 0.057-29.088-16.709-53.904-40.92-66.283zM661.544 353.501h-299.026v155.856c0 82.44 67.132 149.573 149.572 149.573s149.453-67.133 149.453-149.573v-155.856z"  horiz-adv-x="1024" />

    
    <glyph glyph-name="tishi2" unicode="&#58921;" d="M512.034-212c-282.773 0-512 229.228-512 512 0 282.727 229.227 512 512 512 282.772 0 512-229.273 512-512C1024.034 17.228 794.807-212 512.034-212zM512.079 765.364C255.011 765.364 46.625 557 46.625 299.909c0-257.046 208.386-465.454 465.454-465.454 257.046 0 465.455 208.408 465.455 465.454C977.534 557 769.125 765.364 512.079 765.364zM512.397-26.363c-51.409 0-93.091 41.682-93.091 93.091s41.682 93.091 93.091 93.091c51.409 0 93.091-41.682 93.091-93.091S563.807-26.363 512.397-26.363zM512.397 206.363c-16.75 0-46.545 8-46.545 46.546l-46.546 325.818c0 38.546 7.978 46.545 46.546 46.545l93.091 0c38.545 0 46.545-8 46.545-46.545l-46.545-325.818C558.943 214.363 534.943 206.363 512.397 206.363z"  horiz-adv-x="1025" />

    
    <glyph glyph-name="tips" unicode="&#58912;" d="M77.921-24.407c-13.683-23.371-16.912-44.394-8.868-57.666 8.016-13.271 28.628-20.786 56.52-20.786h772.822c27.893 0 48.505 7.516 56.55 20.786 8.045 13.272 4.816 34.295-8.867 57.666l-389.597 666.857c-13.331 22.785-29.978 36.408-44.483 36.408-14.534 0-31.153-13.623-44.512-36.408l-389.566-666.857zM549.876-40.144c-10.717-9.161-23.225-13.741-37.524-13.741-14.534 0-27.247 4.521-38.081 13.565-10.834 9.102-16.266 21.786-16.266 38.111 0 14.211 5.197 26.307 15.561 36.231 10.364 10.042 23.049 14.975 38.081 14.975 15.004 0 27.805-4.932 38.405-14.975 10.629-9.924 15.913-22.022 15.913-36.231 0.001-16.089-5.343-28.773-16.089-37.935v0zM514.495 467.222c20.494 0 34.206-6.812 41.106-20.494 6.9-13.683 10.364-33.296 10.364-59.017 0-15.15-0.822-30.535-2.496-46.155l-15.356-169.65c-1.673-20.201-5.256-35.645-10.746-46.451-5.461-10.805-14.534-16.207-27.16-16.207-12.89 0-21.816 5.226-26.808 15.621-5.020 10.453-8.573 26.425-10.746 47.683l-11.421 164.895c-2.144 32.18-3.23 55.198-3.23 69.176 0 19.026 5.197 33.942 15.561 44.571 10.364 10.685 23.988 16.029 40.929 16.029v0zM514.495 467.222z"  horiz-adv-x="1024" />

    
    <glyph glyph-name="chongzhiqiaquan" unicode="&#58957;" d="M671.981644 255.993604l191.996802 0c17.750269 0 31.999808 14.374382 31.999808 31.999808L895.978255 479.990215c0 17.749246-14.249539 31.999808-31.999808 31.999808l-191.996802 0c-17.624403 0-31.999808-14.250562-31.999808-31.999808l0-191.996802C639.98286 270.367987 654.358265 255.993604 671.981644 255.993604zM703.981453 447.990407l127.998209 0 0-127.998209-127.998209 0L703.981453 447.990407zM160.022577 127.995395l703.95587 0c17.750269 0 31.999808 14.375405 31.999808 31.999808 0 17.750269-14.249539 31.999808-31.999808 31.999808l-703.95587 0c-17.687848 0-31.999808-14.250562-31.999808-31.999808C128.022769 142.370801 142.334729 127.995395 160.022577 127.995395zM160.022577 255.993604l127.998209 0c17.686824 0 31.999808 14.374382 31.999808 31.999808 0 17.750269-14.31196 31.999808-31.999808 31.999808l-127.998209 0c-17.687848 0-31.999808-14.249539-31.999808-31.999808C128.022769 270.367987 142.334729 255.993604 160.022577 255.993604zM959.977871 703.985802l-895.953695 0c-35.374672 0-63.999616-28.624944-63.999616-63.999616l0-639.987976c0-35.374672 28.624944-63.999616 63.999616-63.999616l895.953695 0c35.373649 0 63.998593 28.624944 63.998593 63.999616L1023.976464 639.986185C1023.976464 675.360857 995.35152 703.985802 959.977871 703.985802zM959.977871-0.001791l-895.953695 0L64.024176 639.986185l895.953695 0L959.977871-0.001791z"  horiz-adv-x="1024" />

    
    </font>
</defs>
</svg>
